<?xml version="1.0" encoding="UTF-8"?>
<svg version="1.1" xmlns="http://www.w3.org/2000/svg" width="500" height="500">
<path d="M0 0 C0.33 12.87 0.66 25.74 1 39 C6.19943328 33.22285191 11.1782686 27.64306354 15.9609375 21.57421875 C18.88625621 17.88114398 21.89582007 14.25855021 24.89453125 10.625 C27.27223823 7.6605861 29.47770717 4.60337384 31.61328125 1.4609375 C33.37041243 -0.39023732 34.5075955 -0.54220005 37 -1 C39.10644531 -1.02172852 39.10644531 -1.02172852 41.328125 -0.87890625 C42.12734375 -0.83056641 42.9265625 -0.78222656 43.75 -0.73242188 C44.575 -0.67634766 45.4 -0.62027344 46.25 -0.5625 C47.09046875 -0.51029297 47.9309375 -0.45808594 48.796875 -0.40429688 C50.8649352 -0.27504311 52.9325222 -0.13825726 55 0 C54.40780712 3.0783964 53.51743713 4.92792824 51.515625 7.328125 C50.99895264 7.95509277 50.48228027 8.58206055 49.94995117 9.22802734 C49.38896729 9.89527832 48.8279834 10.5625293 48.25 11.25 C47.06362785 12.68475178 45.8774351 14.11965192 44.69140625 15.5546875 C43.77512451 16.65635254 43.77512451 16.65635254 42.84033203 17.78027344 C39.92993877 21.29066022 37.0593059 24.83303541 34.1875 28.375 C33.64875244 29.03790039 33.11000488 29.70080078 32.55493164 30.38378906 C28.34285129 35.56768848 24.15880565 40.77322311 20 46 C21.98826466 50.59088076 25.23479728 54.27728746 28.34594727 58.13769531 C30.98862844 61.42550036 33.54504318 64.73289797 35.97265625 68.18359375 C40.9111392 75.43516587 40.9111392 75.43516587 47.96875 80.24609375 C50.95678975 80.69036808 53.98311782 80.84449061 57 81 C61.29 82.32 65.58 83.64 70 85 C70.33 56.95 70.66 28.9 71 0 C92.78 0 114.56 0 137 0 C137.33 5.28 137.66 10.56 138 16 C136.44341518 17.55658482 134.92132264 17.16309399 132.75561523 17.20532227 C131.40432777 17.2352401 131.40432777 17.2352401 130.02574158 17.26576233 C129.04658279 17.28247482 128.06742401 17.29918732 127.05859375 17.31640625 C125.56248314 17.3475779 125.56248314 17.3475779 124.03614807 17.37937927 C120.83667157 17.44498637 117.63711018 17.50381134 114.4375 17.5625 C112.27407961 17.60567462 110.11066794 17.64928855 107.94726562 17.69335938 C102.63159631 17.80150927 97.31586653 17.90049951 92 18 C91.67 24.93 91.34 31.86 91 39 C104.2 39 117.4 39 131 39 C131 44.61 131 50.22 131 56 C117.8 56 104.6 56 91 56 C91 64.58 91 73.16 91 82 C106.51 82 122.02 82 138 82 C138 87.61 138 93.22 138 99 C136.45769023 100.54230977 134.9959029 100.16247487 132.84741211 100.20532227 C131.52615578 100.2352401 131.52615578 100.2352401 130.1782074 100.26576233 C129.22092239 100.28247482 128.26363739 100.29918732 127.27734375 100.31640625 C125.81452721 100.3475779 125.81452721 100.3475779 124.32215881 100.37937927 C121.1940137 100.44498412 118.06578178 100.50381028 114.9375 100.5625 C112.8222565 100.60567483 110.70702191 100.64928877 108.59179688 100.69335938 C103.39462413 100.80067655 98.19736423 100.9024222 93 101 C94.10190674 102.36910522 94.10190674 102.36910522 95.22607422 103.76586914 C105.41784565 116.51742164 105.41784565 116.51742164 109.125 123.4375 C109.528396 124.18153076 109.93179199 124.92556152 110.34741211 125.69213867 C127.45620278 158.23592502 137.59721625 197.58244304 142 234 C142.0928125 234.73782715 142.185625 235.4756543 142.28125 236.23583984 C144.64421466 256.94975684 145.83721094 282.31241918 135 301 C132.75317078 303.80278525 130.41954742 306.39154904 127.890625 308.94140625 C125.79080686 310.94624258 125.79080686 310.94624258 125 314 C125.71942804 316.67936518 126.51387665 319.23645503 127.421875 321.8515625 C127.68252747 322.62503021 127.94317993 323.39849792 128.21173096 324.19540405 C129.04942061 326.67487683 129.89947186 329.14990539 130.75 331.625 C131.30811931 333.26925055 131.8654203 334.91377911 132.421875 336.55859375 C133.45682888 339.61455722 134.49676585 342.6687272 135.54199219 345.72119141 C135.77865601 346.41722473 136.01531982 347.11325806 136.25915527 347.8303833 C136.78392359 349.36720479 137.31526755 350.90178816 137.85119629 352.43475342 C138.12620972 353.23278381 138.40122314 354.03081421 138.68457031 354.85302734 C138.93636047 355.57549652 139.18815063 356.2979657 139.4475708 357.04232788 C140 359 140 359 140 362 C140.66 362 141.32 362 142 362 C142.23195068 360.81212891 142.46390137 359.62425781 142.70288086 358.40039062 C144.21014752 351.63938061 146.51851418 345.14109297 148.75390625 338.59375 C149.21980306 337.2190638 149.68536852 335.84426526 150.15061951 334.46936035 C151.12016989 331.60746856 152.0929026 328.7466859 153.06811523 325.88671875 C154.31984209 322.21534181 155.56466459 318.54166868 156.80731297 314.86721039 C157.76496152 312.03726015 158.7255779 309.2083248 159.68717766 306.37971497 C160.14767196 305.02434194 160.6073772 303.66870056 161.06628609 302.31278992 C161.70474647 300.42823214 162.3475018 298.54513105 162.99047852 296.66210938 C163.35528824 295.59005249 163.72009796 294.51799561 164.09596252 293.41345215 C165 291 165 291 166 290 C167.92667507 289.91251793 169.85651861 289.89302666 171.78515625 289.90234375 C173.53989258 289.90717773 173.53989258 289.90717773 175.33007812 289.91210938 C176.56177734 289.92048828 177.79347656 289.92886719 179.0625 289.9375 C180.91584961 289.94426758 180.91584961 289.94426758 182.80664062 289.95117188 C185.87114117 289.96300392 188.93554721 289.97948827 192 290 C192.0231211 302.89072255 192.04091389 315.7814402 192.05181217 328.67217922 C192.05704151 334.65719266 192.06414008 340.64219196 192.07543945 346.62719727 C192.08626653 352.39783429 192.09227645 358.16845768 192.09487724 363.93910408 C192.09673182 366.14602943 192.10035304 368.352954 192.10573006 370.55987358 C192.1129381 373.63946041 192.11399104 376.71899014 192.11352539 379.79858398 C192.11712067 380.72071182 192.12071594 381.64283966 192.12442017 382.59291077 C192.11405216 388.88594784 192.11405216 388.88594784 191 390 C189.66956375 390.0983721 188.33406656 390.13078592 187 390.1328125 C186.195625 390.13410156 185.39125 390.13539063 184.5625 390.13671875 C183.716875 390.13285156 182.87125 390.12898438 182 390.125 C181.154375 390.12886719 180.30875 390.13273437 179.4375 390.13671875 C178.633125 390.13542969 177.82875 390.13414062 177 390.1328125 C175.88625 390.13112061 175.88625 390.13112061 174.75 390.12939453 C173 390 173 390 172 389 C171.87649342 387.09839888 171.82206557 385.1922761 171.79467773 383.28686523 C171.77473251 382.0656749 171.75478729 380.84448456 171.73423767 379.58628845 C171.71725209 378.24372487 171.70037333 376.90115993 171.68359375 375.55859375 C171.66303053 374.19238139 171.64203423 372.82617549 171.62062073 371.4599762 C171.56533465 367.85805476 171.51595437 364.25607529 171.46777344 360.65405273 C171.41760597 356.98090428 171.36189515 353.30784045 171.30664062 349.63476562 C171.19897918 342.42324868 171.09755213 335.21166153 171 328 C170.61255615 329.10698242 170.2251123 330.21396484 169.82592773 331.35449219 C167.41455078 338.24414062 165.00317383 345.13378906 162.59179688 352.0234375 C162.28754791 352.89286987 161.98329895 353.76230225 161.66983032 354.65808105 C161.05316208 356.41968763 160.43611594 358.18116196 159.81869507 359.94250488 C158.20628453 364.54390398 156.60137621 369.14772711 155.00830078 373.75585938 C154.52732689 375.14263885 154.52732689 375.14263885 154.03663635 376.55743408 C153.42159804 378.33131743 152.80883039 380.10599007 152.19859314 381.88153076 C150.11240206 387.88759794 150.11240206 387.88759794 149 389 C146.34799677 389.26431926 143.72107035 389.46874867 141.0625 389.625 C139.9497168 389.70234375 139.9497168 389.70234375 138.81445312 389.78125 C133.24875151 390.12437576 133.24875151 390.12437576 131 389 C130.01367187 386.71148682 130.01367187 386.71148682 128.96875 383.64160156 C128.57494141 382.49661194 128.18113281 381.35162231 127.77539062 380.17193604 C127.35451172 378.92410339 126.93363281 377.67627075 126.5 376.390625 C126.05992631 375.10342484 125.61916157 373.81646075 125.17773438 372.52972412 C124.01470838 369.13405028 122.86036883 365.73548725 121.70800781 362.33618164 C120.31137682 358.22093618 118.90556049 354.10882244 117.50012207 349.99657822 C116.40538582 346.79330291 115.31284521 343.58934415 114.22460938 340.3838501 C113.83080078 339.22625183 113.43699219 338.06865356 113.03125 336.87597656 C112.68642578 335.85973206 112.34160156 334.84348755 111.98632812 333.79644775 C111.06065533 331.17197062 110.03355766 328.58389414 109 326 C108.67 346.79 108.34 367.58 108 389 C104.40523628 390.19825457 101.11450601 390.14608744 97.375 390.125 C96.68148438 390.12886719 95.98796875 390.13273437 95.2734375 390.13671875 C90.12666646 390.12666646 90.12666646 390.12666646 89 389 C88.93912359 386.70506623 88.94889629 384.40824841 88.98510742 382.11279297 C89.00454876 380.61897366 89.02350231 379.12514795 89.04203796 377.63131714 C89.0531983 376.83509823 89.06435863 376.03887932 89.07585716 375.21853256 C89.13673659 370.12733438 89.13715412 365.03570225 89.14846325 359.9441967 C89.16188558 355.46739789 89.19663682 350.99272544 89.27758789 346.51660156 C89.35465537 342.18979971 89.37289906 337.86624754 89.3517704 333.53885269 C89.35422197 331.89214367 89.37785745 330.24532054 89.42339134 328.59923935 C89.55760072 323.49173937 89.51508723 318.90920164 88 314 C85.18162438 311.31978234 82.65701261 309.89164212 79.09004211 308.37112427 C73.83517424 306.03941596 70.12530584 301.91447249 66 298 C64.69219802 296.89027289 63.37991823 295.7857939 62.0625 294.6875 C53.1209167 286.90434044 44.82172806 277.38553176 37.6875 267.9375 C24.83506474 253.88948937 3.36057491 248.93988376 -15.02819824 247.88348389 C-44.03446572 246.60565665 -80.31708864 246.26569563 -103.2578125 267.17578125 C-106.29982806 270.36103073 -109.03256256 273.7888992 -111.77734375 277.23046875 C-114.73941291 280.92134227 -117.85213979 284.46751378 -121 288 C-120.33613281 288.06058594 -119.67226562 288.12117188 -118.98828125 288.18359375 C-118.10527344 288.26738281 -117.22226563 288.35117187 -116.3125 288.4375 C-115.44238281 288.51871094 -114.57226562 288.59992188 -113.67578125 288.68359375 C-111.09779359 288.98843609 -108.54553705 289.49089259 -106 290 C-106 295.61 -106 301.22 -106 307 C-115.24 307.33 -124.48 307.66 -134 308 C-134.33 334.73 -134.66 361.46 -135 389 C-139.31767325 389.86353465 -142.88340807 390.13413513 -147.25 390.125 C-148.49265625 390.12757813 -149.7353125 390.13015625 -151.015625 390.1328125 C-154 390 -154 390 -155 389 C-155.1241622 386.73079775 -155.17803748 384.4577355 -155.20532227 382.18530273 C-155.21522186 381.47314606 -155.22512146 380.76098938 -155.23532104 380.0272522 C-155.26702212 377.66273372 -155.29172724 375.29819511 -155.31640625 372.93359375 C-155.33696836 371.29833948 -155.35796463 369.66309062 -155.37937927 368.02784729 C-155.43467672 363.71571214 -155.48405201 359.40352842 -155.53222656 355.09130859 C-155.58238572 350.69429176 -155.63810087 346.2973458 -155.69335938 341.90039062 C-155.80103473 333.26698693 -155.90245871 324.6335241 -156 316 C-157.22976562 316.21003662 -157.22976562 316.21003662 -158.484375 316.42431641 C-159.56203125 316.60655762 -160.6396875 316.78879883 -161.75 316.9765625 C-162.81734375 317.15783691 -163.8846875 317.33911133 -164.984375 317.52587891 C-173.38491294 318.8466241 -180.20247584 317.6269985 -188 314 C-190.35669198 312.26407704 -192.41325494 310.46263849 -194.4765625 308.390625 C-195.9024071 306.77527348 -195.9024071 306.77527348 -198 307 C-199.58455866 308.78723941 -199.58455866 308.78723941 -201.125 311 C-201.66382813 311.7425 -202.20265625 312.485 -202.7578125 313.25 C-203.16773438 313.8275 -203.57765625 314.405 -204 315 C-207.11039513 314.38619697 -209.20829308 313.34990882 -211.8125 311.5625 C-218.52364717 307.28615208 -225.152832 306.20426534 -233 307 C-236.70457018 307.84446941 -239.95746036 308.8323556 -242.5625 311.75 C-243.21055655 315.08286226 -242.7770848 317.71233354 -242 321 C-237.09984785 326.96548085 -227.77596348 327.82310248 -220.625 329.375 C-210.68815135 331.65903582 -201.97731603 333.81256624 -195.25390625 341.9609375 C-191.66750821 347.79302403 -190.46550454 352.5564224 -190.5625 359.3125 C-190.57079834 360.05870605 -190.57909668 360.80491211 -190.58764648 361.57373047 C-190.83354384 369.64021385 -192.71615499 375.84728781 -198.25 381.875 C-207.64947017 390.35647521 -218.93788763 391.44757439 -231.1875 391.25 C-245.03554265 390.34193163 -255.62908112 385.86715536 -265.48046875 376.18359375 C-267 374 -267 374 -267.0234375 372.08203125 C-265.55834593 369.10152054 -263.57848148 366.78299217 -261.4375 364.25 C-260.61121094 363.26515625 -259.78492188 362.2803125 -258.93359375 361.265625 C-258.29550781 360.51796875 -257.65742188 359.7703125 -257 359 C-252.06122115 359.75476355 -250.4555455 361.37990471 -247 365 C-240.16613813 370.76607095 -233.56186703 372.42923472 -224.66015625 372.2578125 C-220.82988833 371.88659711 -218.33750284 370.91728887 -215 369 C-212.82669609 365.74004414 -212.75078541 364.77020034 -212.8125 361 C-212.82216797 359.700625 -212.82216797 359.700625 -212.83203125 358.375 C-212.91169563 355.85072535 -212.91169563 355.85072535 -214 353 C-218.21620155 351.27833201 -222.65774528 350.26505416 -227.0625 349.125 C-229.05867521 348.59443374 -231.05366744 348.05962409 -233.04833984 347.5234375 C-234.88125647 347.03184715 -236.71596202 346.54694072 -238.55078125 346.0625 C-247.7020039 343.48166165 -255.82605368 340.08410451 -261.0703125 331.765625 C-264.86322637 324.56227596 -265.10362626 316.1477869 -263.41796875 308.28515625 C-260.79026543 300.49803544 -255.67048538 295.54955294 -248.53125 291.65234375 C-234.89451192 285.92244928 -218.6695423 287.19335085 -205 292 C-205.20496094 291.2265625 -205.40992188 290.453125 -205.62109375 289.65625 C-205.89050781 288.6146875 -206.15992188 287.573125 -206.4375 286.5 C-206.70433594 285.4790625 -206.97117188 284.458125 -207.24609375 283.40625 C-218.33786027 233.29215463 -198.53322004 159.96246563 -171.5 117.375 C-167.55599481 111.39840115 -162.9707091 106.13732504 -158 101 C-157.19369141 100.06607422 -157.19369141 100.06607422 -156.37109375 99.11328125 C-148.20394731 90.00455903 -135.44712994 84.65184513 -124 81 C-123.34 81 -122.68 81 -122 81 C-121.83007034 80.34343414 -121.66014069 79.68686829 -121.48506165 79.01040649 C-119.61199336 71.94101769 -117.39491022 65.04961541 -114.98046875 58.1484375 C-114.59941483 57.05012604 -114.2183609 55.95181458 -113.82575989 54.82022095 C-112.61640833 51.33728723 -111.40200318 47.85614021 -110.1875 44.375 C-109.38444089 42.0639149 -108.58170399 39.75271781 -107.77929688 37.44140625 C-105.87197313 31.95099836 -103.95769112 26.46305659 -102.03948975 20.97644043 C-101.06455789 18.18485291 -100.09362953 15.39190423 -99.12353516 12.59863281 C-98.57863482 11.03704505 -98.03356421 9.47551669 -97.48828125 7.9140625 C-97.24579147 7.21292328 -97.0033017 6.51178406 -96.75346375 5.78939819 C-95.11410344 1.11410344 -95.11410344 1.11410344 -94 0 C-92.07332493 -0.08748207 -90.14348139 -0.10697334 -88.21484375 -0.09765625 C-87.16159912 -0.09515869 -86.10835449 -0.09266113 -85.02319336 -0.09008789 C-83.66129536 -0.0809239 -82.29939761 -0.07172138 -80.9375 -0.0625 C-78.62964033 -0.05101203 -76.32177885 -0.03988574 -74.01391602 -0.02905273 C-71.00695801 -0.01452637 -71.00695801 -0.01452637 -68 0 C-61.13398446 19.06515544 -54.43091444 38.18221384 -47.84619141 57.34619141 C-46.5964839 60.98286111 -45.34231956 64.61797848 -44.0872097 68.25278664 C-43.10889466 71.08808931 -42.1333497 73.92433905 -41.15861893 76.7608757 C-40.69629483 78.10486966 -40.23298629 79.44852541 -39.76865768 80.79182816 C-39.12981371 82.64097953 -38.49521396 84.49159558 -37.86083984 86.34228516 C-37.50017426 87.39034332 -37.13950867 88.43840149 -36.76791382 89.51821899 C-36 92 -36 92 -36 94 C-31.05 94 -26.1 94 -21 94 C-21 62.98 -21 31.96 -21 0 C-14.73900966 -3.13049517 -6.99032481 -0.36791183 0 0 Z M-82 22 C-85.16348795 29.54468458 -87.78201466 37.20299447 -90.25 45 C-90.61351562 46.13050781 -90.97703125 47.26101562 -91.3515625 48.42578125 C-93.22721816 53.61400232 -93.22721816 53.61400232 -94 59 C-85.75 59 -77.5 59 -69 59 C-71.21326438 50.88469728 -73.5230864 42.88428223 -76.0625 34.875 C-76.41376953 33.740625 -76.76503906 32.60625 -77.12695312 31.4375 C-77.46791016 30.36242187 -77.80886719 29.28734375 -78.16015625 28.1796875 C-78.46574463 27.20757324 -78.77133301 26.23545898 -79.08618164 25.23388672 C-79.78130868 22.8349634 -79.78130868 22.8349634 -82 22 Z M0 57 C0 67.56 0 78.12 0 89 C5.90259559 87.68831209 10.24377434 86.69812155 15.5625 84.375 C16.59503906 83.92898437 17.62757813 83.48296875 18.69140625 83.0234375 C19.45324219 82.68570313 20.21507812 82.34796875 21 82 C16.70203794 76.19194316 12.27097181 70.49981048 7.78393555 64.83740234 C5.75782873 62.27343819 3.8138053 59.72070795 2 57 C1.34 57 0.68 57 0 57 Z M-100 77 C-100 77.66 -100 78.32 -100 79 C-98.1128125 79.56267578 -98.1128125 79.56267578 -96.1875 80.13671875 C-94.45830742 80.65355916 -92.72914278 81.17049303 -91 81.6875 C-90.09822021 81.95643066 -89.19644043 82.22536133 -88.26733398 82.50244141 C-83.92730811 83.80165803 -79.59566541 85.11738685 -75.28515625 86.51171875 C-74.21104492 86.85746948 -74.21104492 86.85746948 -73.11523438 87.21020508 C-71.1700236 87.8401776 -69.22750403 88.47844231 -67.28515625 89.1171875 C-64.32723242 89.91206358 -62.03532174 90.19582721 -59 90 C-59.47488898 88.01980257 -59.95502859 86.04086365 -60.4375 84.0625 C-60.70433594 82.96035156 -60.97117188 81.85820312 -61.24609375 80.72265625 C-61.72995725 78.10578746 -61.72995725 78.10578746 -63 77 C-65.73894085 76.91141354 -68.4525327 76.88476521 -71.19140625 76.90234375 C-72.01124496 76.9037587 -72.83108368 76.90517365 -73.67576599 76.90663147 C-76.30471382 76.91224711 -78.93357773 76.92480221 -81.5625 76.9375 C-83.34049357 76.94251299 -85.11848846 76.94707624 -86.89648438 76.95117188 C-91.26435545 76.96222161 -95.63216348 76.97949669 -100 77 Z M-128 147 C-129.87764125 150.00390762 -130.2403718 152.2509995 -130.1953125 155.765625 C-130.18886719 156.65507812 -130.18242187 157.54453125 -130.17578125 158.4609375 C-130.15902344 159.38132813 -130.14226562 160.30171875 -130.125 161.25 C-130.11597656 162.18585938 -130.10695312 163.12171875 -130.09765625 164.0859375 C-130.07413636 166.39088657 -130.04126853 168.6953116 -130 171 C-131.31355469 170.96519531 -132.62710938 170.93039063 -133.98046875 170.89453125 C-135.71613301 170.86638534 -137.45181115 170.83908604 -139.1875 170.8125 C-140.05181641 170.78736328 -140.91613281 170.76222656 -141.80664062 170.73632812 C-146.71493062 170.679911 -150.03218039 170.77091072 -154 174 C-156.26631034 176.56450907 -157.85133759 178.51337587 -158.19921875 181.9921875 C-157.93271424 186.02782715 -157.20754784 187.74987825 -154.5625 190.9375 C-151.18541559 193.65564111 -149.66815976 194.12448202 -145.4296875 194.09765625 C-144.08583984 194.09282227 -144.08583984 194.09282227 -142.71484375 194.08789062 C-141.77769531 194.07951172 -140.84054688 194.07113281 -139.875 194.0625 C-138.93011719 194.05798828 -137.98523438 194.05347656 -137.01171875 194.04882812 C-134.67441613 194.03702357 -132.33723939 194.02055759 -130 194 C-130.0314209 194.86165771 -130.0314209 194.86165771 -130.06347656 195.74072266 C-130.14713764 198.36863374 -130.1988146 200.9962639 -130.25 203.625 C-130.28351563 204.52863281 -130.31703125 205.43226563 -130.3515625 206.36328125 C-130.43526395 212.09683079 -129.96326572 215.52101521 -126 220 C-122.06116503 222.37816451 -119.959525 223.11580474 -115.375 222.5625 C-111.45983097 220.74992175 -108.97709158 218.81886349 -107 215 C-106.40685211 211.35011011 -106.52521061 207.81021742 -106.6875 204.125 C-106.72133789 202.66320312 -106.72133789 202.66320312 -106.75585938 201.171875 C-106.81449247 198.77964485 -106.89648847 196.3906385 -107 194 C-106.39526855 194.02094727 -105.79053711 194.04189453 -105.16748047 194.06347656 C-102.40349229 194.14708945 -99.63977087 194.19880054 -96.875 194.25 C-95.92367187 194.28351563 -94.97234375 194.31703125 -93.9921875 194.3515625 C-87.96678329 194.43524867 -84.59349125 194.00439091 -80 190 C-77.40963652 186.58542996 -77.56891259 183.16717829 -78 179 C-79.6309919 175.7984233 -80.86195289 173.66015624 -84 171.83984375 C-88.43747157 170.59758283 -92.73013522 170.79080107 -97.3125 170.875 C-98.24384766 170.88402344 -99.17519531 170.89304688 -100.13476562 170.90234375 C-102.4234436 170.92581737 -104.71158672 170.95865271 -107 171 C-106.96072388 170.09290283 -106.96072388 170.09290283 -106.9206543 169.16748047 C-106.81614184 166.40358903 -106.75150727 163.640114 -106.6875 160.875 C-106.6246582 159.44800781 -106.6246582 159.44800781 -106.56054688 157.9921875 C-106.4435839 151.72381179 -106.4435839 151.72381179 -109.39453125 146.3828125 C-112.97198565 143.11107759 -115.019999 142.65275453 -119.8984375 142.71484375 C-123.33769673 143.18150904 -125.41146518 144.78125587 -128 147 Z M54.5625 154.5625 C51.41610394 159.47087786 51.40552781 164.33959085 52 170 C53.59428401 175.29058579 57.05068892 178.45735698 61.7890625 181.1171875 C66.25781896 182.90153195 70.471231 182.93584364 74.984375 181.265625 C79.83688564 178.73568355 82.61046706 175.38205647 85.3125 170.75 C86.65117497 165.39530011 85.80809472 160.68083701 83.4375 155.75 C79.94638395 151.81130497 76.2256537 148.71889569 70.984375 147.55078125 C64.42179472 147.17614576 59.01860042 149.87788161 54.5625 154.5625 Z M21.6171875 187.5390625 C18.38518812 192.30795668 18.11932579 197.41041468 19 203 C20.80669179 208.33887575 24.12358207 211.3024071 29 214 C34.10324201 215.70108067 38.31873434 215.56521247 43.1875 213.3125 C47.55384059 210.91396861 49.93553612 208.02248138 52.25 203.625 C53.54827939 199.08102214 53.48719059 195.40425524 51.9375 190.9375 C49.16511765 186.73421062 45.53541764 183.26770882 41 181 C32.99222948 179.95809677 27.09423981 181.44313422 21.6171875 187.5390625 Z " fill="#5271FD" transform="translate(283,58)"/>
<path d="M0 0 C8.58 0 17.16 0 26 0 C26.99 2.31 27.98 4.62 29 7 C29.53625 8.134375 30.0725 9.26875 30.625 10.4375 C32.16776781 14.43467115 32.6272491 17.75063979 33 22 C33.66 22 34.32 22 35 22 C36.96348688 27.67208296 38.92044418 33.34636231 40.87158203 39.02270508 C41.53518895 40.95039438 42.2005256 42.87748919 42.86767578 44.80395508 C43.83048904 47.58517575 44.78690551 50.36852861 45.7421875 53.15234375 C46.03809784 54.00271713 46.33400818 54.85309052 46.6388855 55.72923279 C48.47530865 61.10577303 49.85870351 66.43311821 51 72 C51.66 72 52.32 72 53 72 C53.34792603 70.21819336 53.34792603 70.21819336 53.70288086 68.40039062 C55.21014752 61.63938061 57.51851418 55.14109297 59.75390625 48.59375 C60.21980306 47.2190638 60.68536852 45.84426526 61.15061951 44.46936035 C62.12016989 41.60746856 63.0929026 38.7466859 64.06811523 35.88671875 C65.31984209 32.21534181 66.56466459 28.54166868 67.80731297 24.86721039 C68.76496152 22.03726015 69.7255779 19.2083248 70.68717766 16.37971497 C71.14767196 15.02434194 71.6073772 13.66870056 72.06628609 12.31278992 C72.70474647 10.42823214 73.3475018 8.54513105 73.99047852 6.66210938 C74.35528824 5.59005249 74.72009796 4.51799561 75.09596252 3.41345215 C76 1 76 1 77 0 C78.92667507 -0.08748207 80.85651861 -0.10697334 82.78515625 -0.09765625 C83.95498047 -0.09443359 85.12480469 -0.09121094 86.33007812 -0.08789062 C87.56177734 -0.07951172 88.79347656 -0.07113281 90.0625 -0.0625 C91.91584961 -0.05573242 91.91584961 -0.05573242 93.80664062 -0.04882812 C96.87114117 -0.03699608 99.93554721 -0.02051173 103 0 C103.0231211 12.89072255 103.04091389 25.7814402 103.05181217 38.67217922 C103.05704151 44.65719266 103.06414008 50.64219196 103.07543945 56.62719727 C103.08626653 62.39783429 103.09227645 68.16845768 103.09487724 73.93910408 C103.09673182 76.14602943 103.10035304 78.352954 103.10573006 80.55987358 C103.1129381 83.63946041 103.11399104 86.71899014 103.11352539 89.79858398 C103.11712067 90.72071182 103.12071594 91.64283966 103.12442017 92.59291077 C103.11405216 98.88594784 103.11405216 98.88594784 102 100 C100.66956375 100.0983721 99.33406656 100.13078592 98 100.1328125 C97.195625 100.13410156 96.39125 100.13539063 95.5625 100.13671875 C94.716875 100.13285156 93.87125 100.12898438 93 100.125 C92.154375 100.12886719 91.30875 100.13273437 90.4375 100.13671875 C89.633125 100.13542969 88.82875 100.13414062 88 100.1328125 C87.2575 100.13168457 86.515 100.13055664 85.75 100.12939453 C84 100 84 100 83 99 C82.87649342 97.09839888 82.82206557 95.1922761 82.79467773 93.28686523 C82.7647599 91.45507973 82.7647599 91.45507973 82.73423767 89.58628845 C82.71725209 88.24372487 82.70037333 86.90115993 82.68359375 85.55859375 C82.66303053 84.19238139 82.64203423 82.82617549 82.62062073 81.4599762 C82.56533465 77.85805476 82.51595437 74.25607529 82.46777344 70.65405273 C82.41760597 66.98090428 82.36189515 63.30784045 82.30664062 59.63476562 C82.19897918 52.42324868 82.09755213 45.21166153 82 38 C81.61255615 39.10698242 81.2251123 40.21396484 80.82592773 41.35449219 C78.41455078 48.24414062 76.00317383 55.13378906 73.59179688 62.0234375 C73.28754791 62.89286987 72.98329895 63.76230225 72.66983032 64.65808105 C72.05316208 66.41968763 71.43611594 68.18116196 70.81869507 69.94250488 C69.20628453 74.54390398 67.60137621 79.14772711 66.00830078 83.75585938 C65.68765152 84.68037903 65.36700226 85.60489868 65.03663635 86.55743408 C64.42159804 88.33131743 63.80883039 90.10599007 63.19859314 91.88153076 C61.11240206 97.88759794 61.11240206 97.88759794 60 99 C57.34799677 99.26431926 54.72107035 99.46874867 52.0625 99.625 C51.32064453 99.6765625 50.57878906 99.728125 49.81445312 99.78125 C44.24875151 100.12437576 44.24875151 100.12437576 42 99 C41.01367188 96.71148682 41.01367188 96.71148682 39.96875 93.64160156 C39.57494141 92.49661194 39.18113281 91.35162231 38.77539062 90.17193604 C38.35451172 88.92410339 37.93363281 87.67627075 37.5 86.390625 C37.05992631 85.10342484 36.61916157 83.81646075 36.17773438 82.52972412 C35.01470838 79.13405028 33.86036883 75.73548725 32.70800781 72.33618164 C31.31137682 68.22093618 29.90556049 64.10882244 28.50012207 59.99657822 C27.40538582 56.79330291 26.31284521 53.58934415 25.22460938 50.3838501 C24.63389648 48.6474527 24.63389648 48.6474527 24.03125 46.87597656 C23.68642578 45.85973206 23.34160156 44.84348755 22.98632812 43.79644775 C22.06065533 41.17197062 21.03355766 38.58389414 20 36 C19.67 56.79 19.34 77.58 19 99 C15.40523628 100.19825457 12.11450601 100.14608744 8.375 100.125 C7.68148438 100.12886719 6.98796875 100.13273437 6.2734375 100.13671875 C1.12666646 100.12666646 1.12666646 100.12666646 0 99 C-0.12956113 96.76083375 -0.18863459 94.51757745 -0.22119141 92.27490234 C-0.2326973 91.57042969 -0.24420319 90.86595703 -0.25605774 90.14013672 C-0.29299043 87.78878225 -0.32254007 85.43740205 -0.3515625 83.0859375 C-0.37470722 81.43852401 -0.39809776 79.79111395 -0.42172241 78.14370728 C-0.47034293 74.6682685 -0.51519994 71.19280498 -0.55761719 67.71728516 C-0.60091802 64.19505526 -0.64931675 60.67296387 -0.703125 57.15087891 C-0.99486979 38.05236157 -1.10493103 19.08067462 0 0 Z " fill="#F1A367" transform="translate(372,348)"/>
<path d="M0 0 C8.58 0 17.16 0 26 0 C30.49974962 11.24937406 30.49974962 11.24937406 32.34667969 16.64526367 C32.76101257 17.85159958 33.17534546 19.05793549 33.60223389 20.30082703 C34.04214966 21.58986219 34.48202904 22.87890977 34.921875 24.16796875 C35.39000154 25.53355393 35.85837038 26.89905607 36.32696533 28.26448059 C37.55575897 31.84689182 38.78161008 35.43030256 40.00671387 39.01397705 C41.94622388 44.68550695 43.89071152 50.35533352 45.83424377 56.02548599 C46.54269948 58.09328151 47.25035987 60.16134784 47.95788574 62.22946167 C50.11438977 68.52928993 52.28247089 74.8244383 54.48632812 81.10791016 C54.86331848 82.18349686 55.24030884 83.25908356 55.62872314 84.36726379 C56.32571653 86.35140633 57.02538589 88.33461165 57.72821045 90.31669617 C58.03091858 91.17809708 58.33362671 92.03949799 58.64550781 92.92700195 C59.0408371 94.04338799 59.0408371 94.04338799 59.44415283 95.18232727 C60 97 60 97 60 99 C53.54822678 100.2003299 43.96412904 101.98206452 38 99 C37.22216797 97.29760742 37.22216797 97.29760742 36.4921875 95.10546875 C36.22792969 94.31462891 35.96367187 93.52378906 35.69140625 92.70898438 C35.42199219 91.87689453 35.15257812 91.04480469 34.875 90.1875 C34.59785156 89.36701172 34.32070313 88.54652344 34.03515625 87.70117188 C32.76841296 83.85414116 32 81.11756253 32 77 C19.46 77 6.92 77 -6 77 C-6.66 79.97 -7.32 82.94 -8 86 C-8.58412072 88.15731979 -9.20409458 90.30557326 -9.875 92.4375 C-10.33519531 93.95150391 -10.33519531 93.95150391 -10.8046875 95.49609375 C-12 98 -12 98 -13.5859375 99.33984375 C-17.30072481 100.35569983 -20.92009133 100.20756851 -24.75 100.125 C-25.54277344 100.11597656 -26.33554687 100.10695313 -27.15234375 100.09765625 C-29.10169281 100.07417012 -31.05088575 100.03830137 -33 100 C-34.25426639 96.23720084 -33.55618929 94.98605495 -32.26855469 91.27636719 C-31.66101349 89.50480255 -31.66101349 89.50480255 -31.04119873 87.69744873 C-30.58496685 86.39718401 -30.1285191 85.09699501 -29.671875 83.796875 C-29.20279637 82.44079264 -28.73448824 81.08444354 -28.26690674 79.72784424 C-27.02319146 76.12670896 -25.76839848 72.52952596 -24.51147461 68.9329834 C-23.27925185 65.40046662 -22.05824358 61.86408234 -20.8359375 58.328125 C-15.88996033 44.03742255 -10.87553932 29.77078955 -5.828125 15.515625 C-5.4697266 14.50185917 -5.4697266 14.50185917 -5.10408783 13.46761322 C-4.434432 11.57458085 -3.76268011 9.68229034 -3.09082031 7.79003906 C-2.71000305 6.71659241 -2.32918579 5.64314575 -1.93682861 4.53717041 C-1 2 -1 2 0 0 Z M12 22 C10.28911478 27.1080086 8.58016842 32.21666006 6.87304688 37.32592773 C6.29155395 39.0653656 5.70952364 40.80462391 5.12695312 42.54370117 C4.29156726 45.0377826 3.45809142 47.53249513 2.625 50.02734375 C2.36251465 50.80963852 2.1000293 51.59193329 1.82958984 52.39793396 C0.55723963 55.63260582 0.55723963 55.63260582 0 59 C8.25 59 16.5 59 25 59 C23.23952375 51.07785688 21.06203245 43.66972652 18.5 36 C18.09652344 34.76121094 17.69304687 33.52242188 17.27734375 32.24609375 C16.69146484 30.48458984 16.69146484 30.48458984 16.09375 28.6875 C15.73990234 27.61886719 15.38605469 26.55023438 15.02148438 25.44921875 C14.25213511 22.85383308 14.25213511 22.85383308 12 22 Z " fill="#F1A366" transform="translate(299,348)"/>
<path d="M0 0 C1.084021 0.00523682 2.16804199 0.01047363 3.28491211 0.01586914 C4.33815674 0.0183667 5.39140137 0.02086426 6.4765625 0.0234375 C7.8384605 0.03260149 9.20035824 0.04180401 10.56225586 0.05102539 C12.87011553 0.06251336 15.17797701 0.07363965 17.48583984 0.08447266 C20.49279785 0.09899902 20.49279785 0.09899902 23.49975586 0.11352539 C30.3276947 19.09345061 37.02598048 38.11528124 43.59863281 57.18505859 C44.58684443 60.0512452 45.57895817 62.91603875 46.57421875 65.77978516 C47.8038582 69.31793591 49.02729787 72.85817181 50.24625969 76.40001488 C50.70381636 77.72632 51.16346617 79.05190517 51.62536812 80.37670326 C52.26466101 82.21180067 52.89519965 84.04994062 53.52539062 85.88818359 C54.06305809 87.44361626 54.06305809 87.44361626 54.61158752 89.0304718 C55.49975586 92.11352539 55.49975586 92.11352539 56.49975586 99.11352539 C49.89975586 99.11352539 43.29975586 99.11352539 36.49975586 99.11352539 C33.12437638 91.99786054 30.80600721 85.8010299 28.49975586 78.11352539 C10.18475586 77.61852539 10.18475586 77.61852539 -8.50024414 77.11352539 C-8.50024414 77.77352539 -8.50024414 78.43352539 -8.50024414 79.11352539 C-7.84024414 79.44352539 -7.18024414 79.77352539 -6.50024414 80.11352539 C-7.49024414 80.11352539 -8.48024414 80.11352539 -9.50024414 80.11352539 C-9.68200195 80.73098633 -9.86375977 81.34844727 -10.05102539 81.98461914 C-10.30239258 82.8315332 -10.55375977 83.67844727 -10.81274414 84.55102539 C-11.05637695 85.37473633 -11.30000977 86.19844727 -11.55102539 87.04711914 C-12.8024944 91.08993054 -14.16194303 95.09862205 -15.50024414 99.11352539 C-22.10024414 99.11352539 -28.70024414 99.11352539 -35.50024414 99.11352539 C-34.50024414 92.11352539 -34.50024414 92.11352539 -33.43774414 90.11352539 C-32.0415895 87.13506216 -32.37576362 84.3500188 -32.50024414 81.11352539 C-31.84024414 81.11352539 -31.18024414 81.11352539 -30.50024414 81.11352539 C-30.33031448 80.45695953 -30.16038483 79.80039368 -29.98530579 79.12393188 C-28.11223751 72.05454308 -25.89515436 65.1631408 -23.48071289 58.26196289 C-23.09965897 57.16365143 -22.71860504 56.06533997 -22.32600403 54.93374634 C-21.11665247 51.45081263 -19.90224732 47.9696656 -18.68774414 44.48852539 C-17.88468503 42.17744029 -17.08194813 39.8662432 -16.27954102 37.55493164 C-14.37221727 32.06452375 -12.45793526 26.57658198 -10.53973389 21.08996582 C-9.56480203 18.2983783 -8.59387367 15.50542962 -7.6237793 12.7121582 C-7.07887896 11.15057045 -6.53380835 9.58904208 -5.98852539 8.02758789 C-5.62479073 6.97587906 -5.62479073 6.97587906 -5.25370789 5.90292358 C-3.23539935 0.14690564 -3.23539935 0.14690564 0 0 Z M9.49975586 22.11352539 C6.33626791 29.65820997 3.7177412 37.31651986 1.24975586 45.11352539 C0.88624023 46.2440332 0.52272461 47.37454102 0.14819336 48.53930664 C-1.7274623 53.72752771 -1.7274623 53.72752771 -2.50024414 59.11352539 C5.74975586 59.11352539 13.99975586 59.11352539 22.49975586 59.11352539 C20.28649148 50.99822267 17.97666946 42.99780762 15.43725586 34.98852539 C15.08598633 33.85415039 14.7347168 32.71977539 14.37280273 31.55102539 C14.0318457 30.47594727 13.69088867 29.40086914 13.33959961 28.29321289 C13.03401123 27.32109863 12.72842285 26.34898438 12.41357422 25.34741211 C11.71844718 22.94848879 11.71844718 22.94848879 9.49975586 22.11352539 Z " fill="#F1A367" transform="translate(191.500244140625,57.886474609375)"/>
<path d="M0 0 C0.33 12.87 0.66 25.74 1 39 C6.19943328 33.22285191 11.1782686 27.64306354 15.9609375 21.57421875 C18.88625621 17.88114398 21.89582007 14.25855021 24.89453125 10.625 C27.27223823 7.6605861 29.47770717 4.60337384 31.61328125 1.4609375 C33.37041243 -0.39023732 34.5075955 -0.54220005 37 -1 C39.10644531 -1.02172852 39.10644531 -1.02172852 41.328125 -0.87890625 C42.52695312 -0.80639648 42.52695312 -0.80639648 43.75 -0.73242188 C44.575 -0.67634766 45.4 -0.62027344 46.25 -0.5625 C47.09046875 -0.51029297 47.9309375 -0.45808594 48.796875 -0.40429688 C50.8649352 -0.27504311 52.9325222 -0.13825726 55 0 C54.40780712 3.0783964 53.51743713 4.92792824 51.515625 7.328125 C50.99895264 7.95509277 50.48228027 8.58206055 49.94995117 9.22802734 C49.38896729 9.89527832 48.8279834 10.5625293 48.25 11.25 C47.06362785 12.68475178 45.8774351 14.11965192 44.69140625 15.5546875 C44.08055176 16.28913086 43.46969727 17.02357422 42.84033203 17.78027344 C39.92993877 21.29066022 37.0593059 24.83303541 34.1875 28.375 C33.64875244 29.03790039 33.11000488 29.70080078 32.55493164 30.38378906 C28.34285129 35.56768848 24.15880565 40.77322311 20 46 C21.68524203 49.89120491 24.24620918 53.02892385 26.875 56.3125 C27.35461182 56.91916504 27.83422363 57.52583008 28.32836914 58.15087891 C30.94136444 61.44888331 33.58431599 64.72031885 36.25390625 67.97265625 C36.78580566 68.62516357 37.31770508 69.2776709 37.86572266 69.94995117 C38.88348261 71.19646208 39.90752348 72.43788177 40.93896484 73.6730957 C43.91763633 77.32661451 46.11437149 80.91509962 48.02148438 85.23193359 C49.70198518 88.26840736 52.26620519 89.90602951 55 92 C58 95.4 58 95.4 58 99 C39.52702813 101.06558968 39.52702813 101.06558968 33.95898438 97.8046875 C30.19180541 94.41552995 27.70179228 90.24425196 25 86 C23.35410368 84.31281866 21.68509474 82.64803254 20 81 C17.58873645 78.2133087 15.26432291 75.35732866 12.9375 72.5 C12.32583984 71.75363281 11.71417969 71.00726563 11.08398438 70.23828125 C9.90708377 68.80055402 8.73294838 67.36055738 7.56201172 65.91796875 C6.24346888 64.29895147 4.90692141 62.69462204 3.56640625 61.09375 C2 59 2 59 2 57 C1.34 57 0.68 57 0 57 C0.00785522 58.42880493 0.00785522 58.42880493 0.01586914 59.88647461 C0.03412605 63.45921876 0.04550678 67.03195888 0.05493164 70.60473633 C0.05992496 72.14380591 0.06672194 73.68287084 0.07543945 75.22192383 C0.08772634 77.44874224 0.09327843 79.67549733 0.09765625 81.90234375 C0.10281754 82.5777269 0.10797882 83.25311005 0.11329651 83.94895935 C0.11388611 89.10097777 -0.42181445 93.79633005 -1 99 C-7.27 99 -13.54 99 -20 99 C-20.68078945 95.59605274 -21.1247136 93.16106175 -21.12025452 89.8301239 C-21.12162918 89.0323201 -21.12300385 88.2345163 -21.12442017 87.41253662 C-21.12082489 86.55154358 -21.11722961 85.69055054 -21.11352539 84.8034668 C-21.11367142 83.88590103 -21.11381744 82.96833527 -21.1139679 82.02296448 C-21.11327275 78.99835829 -21.10549897 75.97381414 -21.09765625 72.94921875 C-21.09579066 70.84886204 -21.09436742 68.74850489 -21.09336853 66.64814758 C-21.08955449 61.1260355 -21.07973368 55.60394981 -21.06866455 50.08184814 C-21.05842652 44.44454302 -21.05386578 38.80723362 -21.04882812 33.16992188 C-21.03811043 22.11326967 -21.02104735 11.05663703 -21 0 C-14.73900966 -3.13049517 -6.99032481 -0.36791183 0 0 Z " fill="#F0A367" transform="translate(283,58)"/>
<path d="M0 0 C22.11 0 44.22 0 67 0 C67 5.61 67 11.22 67 17 C51.82 17 36.64 17 21 17 C21 24.26 21 31.52 21 39 C34.2 39 47.4 39 61 39 C61 44.61 61 50.22 61 56 C47.8 56 34.6 56 21 56 C21 64.58 21 73.16 21 82 C36.51 82 52.02 82 68 82 C68 87.61 68 93.22 68 99 C65.21546217 100.39226892 62.93740664 100.1272341 59.82202148 100.12939453 C58.52405136 100.13254669 57.22608124 100.13569885 55.88877869 100.13894653 C54.4662167 100.13715689 53.04365502 100.13510597 51.62109375 100.1328125 C50.16903161 100.13348578 48.71696959 100.13445601 47.26490784 100.13571167 C44.22094653 100.13718704 41.17701454 100.13503893 38.13305664 100.13037109 C34.2231307 100.12466882 30.31327331 100.12795696 26.40334988 100.13394356 C23.4051715 100.13754919 20.4070095 100.13641067 17.40883064 100.13381577 C15.96666519 100.13314676 14.52449826 100.13397399 13.08233452 100.13629532 C11.07108461 100.13882238 9.05982952 100.13429079 7.04858398 100.12939453 C5.90211899 100.12859894 4.75565399 100.12780334 3.57444763 100.12698364 C1 100 1 100 0 99 C-0.09532328 95.92545239 -0.1255138 92.87340842 -0.11352539 89.79858398 C-0.11367142 88.83283447 -0.11381744 87.86708496 -0.1139679 86.87207031 C-0.11326834 83.66338901 -0.10547397 80.45476497 -0.09765625 77.24609375 C-0.09579222 75.02791882 -0.09436825 72.80974348 -0.09336853 70.59156799 C-0.08954216 64.74059929 -0.07971086 58.88965523 -0.06866455 53.03869629 C-0.05665902 46.02532714 -0.05204876 39.01194978 -0.04621124 31.9985733 C-0.03649916 21.33236504 -0.01734343 10.6662109 0 0 Z " fill="#F1A466" transform="translate(191,348)"/>
<path d="M0 0 C-1.24585713 4.34162332 -2.76845975 7.38367302 -5.625 10.875 C-6.25664063 11.65617187 -6.88828125 12.43734375 -7.5390625 13.2421875 C-8.26222656 14.11230469 -8.26222656 14.11230469 -9 15 C-12.11039513 14.38619697 -14.20829308 13.34990882 -16.8125 11.5625 C-23.52364717 7.28615208 -30.152832 6.20426534 -38 7 C-41.70457018 7.84446941 -44.95746036 8.8323556 -47.5625 11.75 C-48.21055655 15.08286226 -47.7770848 17.71233354 -47 21 C-42.09984785 26.96548085 -32.77596348 27.82310248 -25.625 29.375 C-15.68815135 31.65903582 -6.97731603 33.81256624 -0.25390625 41.9609375 C3.33249179 47.79302403 4.53449546 52.5564224 4.4375 59.3125 C4.42920166 60.05870605 4.42090332 60.80491211 4.41235352 61.57373047 C4.16645616 69.64021385 2.28384501 75.84728781 -3.25 81.875 C-12.64947017 90.35647521 -23.93788763 91.44757439 -36.1875 91.25 C-50.03554265 90.34193163 -60.62908112 85.86715536 -70.48046875 76.18359375 C-72 74 -72 74 -72.0234375 72.08203125 C-70.55834593 69.10152054 -68.57848148 66.78299217 -66.4375 64.25 C-65.61121094 63.26515625 -64.78492188 62.2803125 -63.93359375 61.265625 C-63.29550781 60.51796875 -62.65742187 59.7703125 -62 59 C-57.06122115 59.75476355 -55.4555455 61.37990471 -52 65 C-45.16613813 70.76607095 -38.56186703 72.42923472 -29.66015625 72.2578125 C-25.82988833 71.88659711 -23.33750284 70.91728887 -20 69 C-17.82669609 65.74004414 -17.75078541 64.77020034 -17.8125 61 C-17.82216797 59.700625 -17.82216797 59.700625 -17.83203125 58.375 C-17.91169563 55.85072535 -17.91169563 55.85072535 -19 53 C-23.21620155 51.27833201 -27.65774528 50.26505416 -32.0625 49.125 C-34.05867521 48.59443374 -36.05366744 48.05962409 -38.04833984 47.5234375 C-39.88125647 47.03184715 -41.71596202 46.54694072 -43.55078125 46.0625 C-52.7020039 43.48166165 -60.82605368 40.08410451 -66.0703125 31.765625 C-69.86322637 24.56227596 -70.10362626 16.1477869 -68.41796875 8.28515625 C-65.7863825 0.4865285 -60.61647867 -4.7083667 -53.28515625 -8.34765625 C-35.0273174 -15.49202798 -14.57165651 -13.05248381 0 0 Z " fill="#F1A367" transform="translate(88,358)"/>
<path d="M0 0 C21.78 0 43.56 0 66 0 C66.495 7.92 66.495 7.92 67 16 C65.44341518 17.55658482 63.92132264 17.16309399 61.75561523 17.20532227 C60.40432777 17.2352401 60.40432777 17.2352401 59.02574158 17.26576233 C58.04658279 17.28247482 57.06742401 17.29918732 56.05859375 17.31640625 C54.56248314 17.3475779 54.56248314 17.3475779 53.03614807 17.37937927 C49.83667157 17.44498637 46.63711018 17.50381134 43.4375 17.5625 C41.27407961 17.60567462 39.11066794 17.64928855 36.94726562 17.69335938 C31.63159631 17.80150927 26.31586653 17.90049951 21 18 C20.67 24.93 20.34 31.86 20 39 C33.2 39 46.4 39 60 39 C60 44.61 60 50.22 60 56 C46.8 56 33.6 56 20 56 C20 64.58 20 73.16 20 82 C35.51 82 51.02 82 67 82 C67 87.61 67 93.22 67 99 C65.45633086 100.54366914 64.02258848 100.12718957 61.87353516 100.12939453 C60.99396149 100.13254669 60.11438782 100.13569885 59.2081604 100.13894653 C58.24485809 100.1369223 57.28155579 100.13489807 56.2890625 100.1328125 C54.79395645 100.13424759 54.79395645 100.13424759 53.26864624 100.13571167 C51.14166196 100.13639476 49.01467563 100.1345316 46.88769531 100.13037109 C43.70112099 100.12512531 40.51469429 100.13025814 37.328125 100.13671875 C24.85279298 100.14037613 12.44922183 99.8109821 0 99 C-1.25093367 88.25951692 -1.03802389 77.58485383 -0.87890625 66.796875 C-0.85455676 64.86347059 -0.83071578 62.93005971 -0.80735779 60.99664307 C-0.74499663 55.94639635 -0.67579823 50.89626638 -0.60510254 45.84613037 C-0.52144266 39.76616648 -0.44640442 33.68609061 -0.36989594 27.60603333 C-0.25314824 18.40392051 -0.12555227 9.20201585 0 0 Z " fill="#F1A366" transform="translate(354,58)"/>
<path d="M0 0 C1.24113556 0.02009628 2.48227112 0.04019257 3.76101685 0.06089783 C5.12046525 0.08809617 6.47991142 0.11540698 7.83935547 0.14282227 C9.22654453 0.16712126 10.61374163 0.19096493 12.00094604 0.21437073 C15.65396277 0.27723371 19.30683726 0.346294 22.9597168 0.41662598 C26.68645749 0.48728948 30.41329911 0.5521183 34.14013672 0.61743164 C41.45405265 0.74647254 48.76781076 0.88259661 56.08154297 1.02172852 C56.08154297 6.63172852 56.08154297 12.24172852 56.08154297 18.02172852 C41.89154297 18.02172852 27.70154297 18.02172852 13.08154297 18.02172852 C13.08154297 26.27172852 13.08154297 34.52172852 13.08154297 43.02172852 C25.95154297 43.02172852 38.82154297 43.02172852 52.08154297 43.02172852 C52.08154297 48.63172852 52.08154297 54.24172852 52.08154297 60.02172852 C49.10612916 61.50943542 46.06957691 61.16398638 42.80810547 61.15454102 C42.08795258 61.15549774 41.36779968 61.15645447 40.62582397 61.15744019 C39.10097161 61.15812112 37.57611634 61.15627287 36.05126953 61.15209961 C33.72275221 61.14676565 31.39442915 61.15203942 29.06591797 61.15844727 C27.58414671 61.15778616 26.10237557 61.15650434 24.62060547 61.15454102 C23.57823227 61.15757736 23.57823227 61.15757736 22.51480103 61.16067505 C19.19569888 61.1446758 16.27410096 60.90189754 13.08154297 60.02172852 C13.08939819 61.83145142 13.08939819 61.83145142 13.09741211 63.67773438 C13.11545908 68.1373623 13.12697386 72.59698697 13.13647461 77.05664062 C13.14151553 78.98991437 13.14834816 80.92318428 13.15698242 82.85644531 C13.16905862 85.62899723 13.17477353 88.40149893 13.17919922 91.17407227 C13.1843605 92.04386215 13.18952179 92.91365204 13.19483948 93.80979919 C13.19503482 95.88078666 13.14362465 97.95167176 13.08154297 100.02172852 C11.14203157 101.96123991 8.26947177 101.15429481 5.69287109 101.15844727 C4.85175781 101.15458008 4.01064453 101.15071289 3.14404297 101.14672852 C2.30679688 101.1505957 1.46955078 101.15446289 0.60693359 101.15844727 C-0.19421875 101.1571582 -0.99537109 101.15586914 -1.82080078 101.15454102 C-2.55806396 101.15341309 -3.29532715 101.15228516 -4.05493164 101.15112305 C-5.91845703 101.02172852 -5.91845703 101.02172852 -7.91845703 100.02172852 C-7.91845703 67.35172852 -7.91845703 34.68172852 -7.91845703 1.02172852 C-5.17997497 -0.34751252 -3.06406076 -0.05582297 0 0 Z " fill="#F2A464" transform="translate(93.91845703125,56.978271484375)"/>
<path d="M0 0 C1.17452728 -0.009104 2.34905457 -0.01820801 3.55917358 -0.02758789 C4.60869705 -0.03721558 5.65822052 -0.04684326 6.73954773 -0.0567627 C9.25717163 0.04858398 9.25717163 0.04858398 11.25717163 1.04858398 C11.25717163 6.65858398 11.25717163 12.26858398 11.25717163 18.04858398 C2.01717163 18.37858398 -7.22282837 18.70858398 -16.74282837 19.04858398 C-17.07282837 45.77858398 -17.40282837 72.50858398 -17.74282837 100.04858398 C-22.06050162 100.91211863 -25.62623644 101.18271911 -29.99282837 101.17358398 C-31.23548462 101.17616211 -32.47814087 101.17874023 -33.75845337 101.18139648 C-36.74282837 101.04858398 -36.74282837 101.04858398 -37.74282837 100.04858398 C-37.86171517 97.78984249 -37.91029184 95.52738619 -37.93228149 93.265625 C-37.94472145 92.20220886 -37.94472145 92.20220886 -37.95741272 91.11730957 C-37.97484955 89.57312347 -37.99000634 88.02891036 -38.00318909 86.48468208 C-38.02415625 84.04342235 -38.05118406 81.60229804 -38.0798645 79.16111755 C-38.13966169 73.97782467 -38.1917623 68.79446927 -38.24282837 63.61108398 C-38.30199179 57.61022231 -38.36426163 51.60942718 -38.43470764 45.60868645 C-38.46134075 43.19898976 -38.48212148 40.78928665 -38.50271606 38.37953186 C-38.51931643 36.90666382 -38.53618804 35.43379881 -38.55337524 33.9609375 C-38.56590332 32.67155777 -38.5784314 31.38217804 -38.59133911 30.0537262 C-38.53731675 27.12492759 -38.53731675 27.12492759 -39.74282837 25.04858398 C-39.08282837 25.04858398 -38.42282837 25.04858398 -37.74282837 25.04858398 C-37.74282837 22.73858398 -37.74282837 20.42858398 -37.74282837 18.04858398 C-46.98282837 18.04858398 -56.22282837 18.04858398 -65.74282837 18.04858398 C-65.74282837 12.43858398 -65.74282837 6.82858398 -65.74282837 1.04858398 C-57.88357016 0.91705414 -50.02429771 0.78645788 -42.16499805 0.65743256 C-38.5142554 0.59746288 -34.86351999 0.53710971 -31.21279907 0.47583008 C-27.67905353 0.4165289 -24.14529169 0.35830038 -20.61151695 0.30076599 C-18.63052063 0.26824767 -16.64954187 0.23466413 -14.66856384 0.2010498 C-9.77916662 0.12212613 -4.88961287 0.06346988 0 0 Z " fill="#F1A367" transform="translate(165.74282836914063,346.951416015625)"/>
<path d="M0 0 C0.99 0.33 1.98 0.66 3 1 C3 2.65 3 4.3 3 6 C3.99 6.33 4.98 6.66 6 7 C6.33 8.65 6.66 10.3 7 12 C8.65 12.33 10.3 12.66 12 13 C12 13.66 12 14.32 12 15 C16.455 15.99 16.455 15.99 21 17 C20.67 15.68 20.34 14.36 20 13 C20.33 12.34 20.66 11.68 21 11 C18.69 11 16.38 11 14 11 C14 10.34 14 9.68 14 9 C23.24 9 32.48 9 42 9 C42 11.31 42 13.62 42 16 C31.63537157 20.76772908 22.68195786 21.17340641 11.91796875 17.33984375 C7.588308 15.35179337 3.98738426 12.73218417 1 9 C-0.09887153 5.94015884 0 3.2716595 0 0 Z " fill="#5A71EB" transform="translate(86,356)"/>
<path d="M0 0 C21.78 0 43.56 0 66 0 C66.495 7.92 66.495 7.92 67 16 C65.35 16.33 63.7 16.66 62 17 C62 16.34 62 15.68 62 15 C62.99 15 63.98 15 65 15 C64.67 10.38 64.34 5.76 64 1 C45.19 1 26.38 1 7 1 C6.67 1.66 6.34 2.32 6 3 C4.68 2.67 3.36 2.34 2 2 C2 30.71 2 59.42 2 89 C2.99 88.505 2.99 88.505 4 88 C4 89.65 4 91.3 4 93 C4.99 93.33 5.98 93.66 7 94 C6.505 94.99 6.505 94.99 6 96 C10.95 96.33 15.9 96.66 21 97 C21 97.66 21 98.32 21 99 C22.485 99.495 22.485 99.495 24 100 C16.08 99.67 8.16 99.34 0 99 C-1.1537152 88.23199145 -1.03833298 77.60580998 -0.87890625 66.796875 C-0.85455676 64.86347059 -0.83071578 62.93005971 -0.80735779 60.99664307 C-0.74499663 55.94639635 -0.67579823 50.89626638 -0.60510254 45.84613037 C-0.52144266 39.76616648 -0.44640442 33.68609061 -0.36989594 27.60603333 C-0.25314824 18.40392051 -0.12555227 9.20201585 0 0 Z " fill="#E7A76D" transform="translate(354,58)"/>
<path d="M0 0 C8.58 0 17.16 0 26 0 C26 32.67 26 65.34 26 99 C25.34 99 24.68 99 24 99 C23.505 50.49 23.505 50.49 23 1 C15.08 1.33 7.16 1.66 -1 2 C-0.67 1.34 -0.34 0.68 0 0 Z " fill="#E2A779" transform="translate(449,348)"/>
<path d="M0 0 C1.24113556 0.02009628 2.48227112 0.04019257 3.76101685 0.06089783 C5.12046525 0.08809617 6.47991142 0.11540698 7.83935547 0.14282227 C9.22654453 0.16712126 10.61374163 0.19096493 12.00094604 0.21437073 C15.65396277 0.27723371 19.30683726 0.346294 22.9597168 0.41662598 C26.68645749 0.48728948 30.41329911 0.5521183 34.14013672 0.61743164 C41.45405042 0.7464725 48.76782372 0.88205762 56.08154297 1.02172852 C55.75154297 2.01172852 55.42154297 3.00172852 55.08154297 4.02172852 C55.08154297 3.36172852 55.08154297 2.70172852 55.08154297 2.02172852 C24.39154297 2.51672852 24.39154297 2.51672852 -6.91845703 3.02172852 C-6.91845703 35.03172852 -6.91845703 67.04172852 -6.91845703 100.02172852 C-7.24845703 100.02172852 -7.57845703 100.02172852 -7.91845703 100.02172852 C-7.91845703 67.35172852 -7.91845703 34.68172852 -7.91845703 1.02172852 C-5.17997497 -0.34751252 -3.06406076 -0.05582297 0 0 Z " fill="#E1A372" transform="translate(93.91845703125,56.978271484375)"/>
<path d="M0 0 C8.58 0 17.16 0 26 0 C29 7 29 7 29 9 C28.34 9 27.68 9 27 9 C26.34 7.02 25.68 5.04 25 3 C17.74 2.67 10.48 2.34 3 2 C3.4063558 8.9707612 3.4063558 8.9707612 3.83837891 15.93994141 C4.11094387 21.18994709 3.9172407 25.03772995 2 30 C1.72178875 32.45140859 1.51442655 34.91179765 1.375 37.375 C1.30023438 38.62023437 1.22546875 39.86546875 1.1484375 41.1484375 C1.09945313 42.08945312 1.05046875 43.03046875 1 44 C0.67 44 0.34 44 0 44 C-0.99231568 29.20686312 -0.81774946 14.81035138 0 0 Z " fill="#CB9B90" transform="translate(372,348)"/>
<path d="M0 0 C19.14 0 38.28 0 58 0 C58 0.33 58 0.66 58 1 C39.19 1 20.38 1 1 1 C1 5.62 1 10.24 1 15 C10.57 15 20.14 15 30 15 C29.67 18.63 29.34 22.26 29 26 C28.01 25.67 27.02 25.34 26 25 C26.66 24.67 27.32 24.34 28 24 C28 21.69 28 19.38 28 17 C18.76 17 9.52 17 0 17 C0 11.39 0 5.78 0 0 Z " fill="#C59B9F" transform="translate(100,348)"/>
<path d="M0 0 C1.9375 0.75 1.9375 0.75 4 2 C4.75 4.125 4.75 4.125 5 6 C4.01 5.34 3.02 4.68 2 4 C2 3.34 2 2.68 2 2 C1.34 2 0.68 2 0 2 C0.00785522 3.42880493 0.00785522 3.42880493 0.01586914 4.88647461 C0.03412605 8.45921876 0.04550678 12.03195888 0.05493164 15.60473633 C0.05992496 17.14380591 0.06672194 18.68287084 0.07543945 20.22192383 C0.08772634 22.44874224 0.09327843 24.67549733 0.09765625 26.90234375 C0.10281754 27.5777269 0.10797882 28.25311005 0.11329651 28.94895935 C0.11388611 34.10097777 -0.42181445 38.79633005 -1 44 C-7.27 44 -13.54 44 -20 44 C-20 42.35 -20 40.7 -20 39 C-19.34 39.33 -18.68 39.66 -18 40 C-18 40.66 -18 41.32 -18 42 C-12.72 42 -7.44 42 -2 42 C-2.01047363 40.86981445 -2.02094727 39.73962891 -2.03173828 38.57519531 C-2.06796432 34.37828748 -2.09090998 30.18139346 -2.10986328 25.984375 C-2.11991491 24.16859614 -2.13355828 22.35283344 -2.15087891 20.53710938 C-2.17516406 17.92574065 -2.18649148 15.31458613 -2.1953125 12.703125 C-2.20563507 11.89256653 -2.21595764 11.08200806 -2.22659302 10.24688721 C-2.22797609 3.28414468 -2.22797609 3.28414468 0 0 Z " fill="#E1A67B" transform="translate(283,113)"/>
<path d="M0 0 C3.21746321 2.65790439 3.08233008 3.41165038 4 8 C10.6 8 17.2 8 24 8 C24 6.35 24 4.7 24 3 C28.95 3 33.9 3 39 3 C39 4.65 39 6.3 39 8 C45.27 8 51.54 8 58 8 C58 8.66 58 9.32 58 10 C51.4 10 44.8 10 38 10 C37.505 8.02 37.505 8.02 37 6 C33.04 5.67 29.08 5.34 25 5 C24.67 6.65 24.34 8.3 24 10 C17.4 10 10.8 10 4 10 C3.67 9.01 3.34 8.02 3 7 C2.34 7 1.68 7 1 7 C0.67 4.69 0.34 2.38 0 0 Z " fill="#7171C8" transform="translate(224,149)"/>
<path d="M0 0 C2.38487322 0.34885913 4.70527721 0.76234725 7.0625 1.25 C8.08162476 1.45653198 8.08162476 1.45653198 9.12133789 1.66723633 C13.98702399 2.6924789 18.43858972 4.04510988 23 6 C19.70303895 7.09898702 18.59505097 6.87124444 15.3125 6.0625 C14.50425781 5.86785156 13.69601562 5.67320312 12.86328125 5.47265625 C12.24839844 5.31667969 11.63351562 5.16070312 11 5 C11.33 6.32 11.66 7.64 12 9 C11.01 9.495 11.01 9.495 10 10 C9.01 11.485 9.01 11.485 8 13 C3.33716394 9.48417174 0.27789598 6.96351455 -1 1 C-0.67 0.67 -0.34 0.34 0 0 Z " fill="#5770E8" transform="translate(329,137)"/>
<path d="M0 0 C12.87 0 25.74 0 39 0 C39 5.61 39 11.22 39 17 C38.34 17 37.68 17 37 17 C37 12.71 37 8.42 37 4 C33.9450722 2.4725361 30.7236686 2.76008168 27.3671875 2.68359375 C26.61535187 2.66281265 25.86351624 2.64203156 25.08889771 2.62062073 C22.68435915 2.55517295 20.27971033 2.49626262 17.875 2.4375 C16.24608229 2.39431023 14.61717578 2.35069579 12.98828125 2.30664062 C8.99230085 2.19949649 4.99620941 2.09821567 1 2 C0.67 1.34 0.34 0.68 0 0 Z " fill="#E1A77A" transform="translate(213,387)"/>
<path d="M0 0 C18.81 0.495 18.81 0.495 38 1 C38 1.66 38 2.32 38 3 C25.79 3 13.58 3 1 3 C1 3.66 1 4.32 1 5 C1.66 5.33 2.32 5.66 3 6 C2.01 6 1.02 6 0 6 C-0.66 7.98 -1.32 9.96 -2 12 C-2.625 10.1875 -2.625 10.1875 -3 8 C-2.34 7.01 -1.68 6.02 -1 5 C-0.67 3.35 -0.34 1.7 0 0 Z " fill="#D59F7E" transform="translate(182,132)"/>
<path d="M0 0 C2 3 2 3 3 6 C3.66 5.67 4.32 5.34 5 5 C5 6.65 5 8.3 5 10 C5.99 10.33 6.98 10.66 8 11 C7.67 11.66 7.34 12.32 7 13 C11.95 13.33 16.9 13.66 22 14 C22 14.66 22 15.32 22 16 C22.99 16.33 23.98 16.66 25 17 C17.08 16.67 9.16 16.34 1 16 C0.67 10.72 0.34 5.44 0 0 Z " fill="#D9A088" transform="translate(353,141)"/>
<path d="M0 0 C0.33 0 0.66 0 1 0 C0.67 3.63 0.34 7.26 0 11 C-0.66 11 -1.32 11 -2 11 C-2 13.31 -2 15.62 -2 18 C3.28 18 8.56 18 14 18 C14.33 16.35 14.66 14.7 15 13 C16.0625 10.6875 16.0625 10.6875 17 9 C17.33 9.66 17.66 10.32 18 11 C17.01 13.97 16.02 16.94 15 20 C8.4 20 1.8 20 -5 20 C-4 13 -4 13 -2.9375 11 C-1.54134536 8.02153677 -1.87551948 5.23649341 -2 2 C-1.34 2 -0.68 2 0 2 C0 1.34 0 0.68 0 0 Z " fill="#D59F89" transform="translate(161,137)"/>
<path d="M0 0 C1.78943918 5.36831755 -1.29564802 10.78364999 -3 16 C4.92 16.33 12.84 16.66 21 17 C21 17.66 21 18.32 21 19 C17.4175621 19.22624982 13.83414899 19.42787181 10.25 19.625 C9.23421875 19.68945312 8.2184375 19.75390625 7.171875 19.8203125 C5.70234375 19.89765625 5.70234375 19.89765625 4.203125 19.9765625 C3.30239258 20.02893066 2.40166016 20.08129883 1.47363281 20.13525391 C-1.18916947 19.98965654 -2.73072479 19.35693395 -5 18 C-5.08153933 16.41753293 -5.13943557 14.83383727 -5.1875 13.25 C-5.22230469 12.36828125 -5.25710938 11.4865625 -5.29296875 10.578125 C-4.94523723 7.51808763 -3.98345612 6.30080909 -2 4 C-1.30419733 2.68163705 -0.62775567 1.35208914 0 0 Z " fill="#DFA578" transform="translate(303,390)"/>
<path d="M0 0 C0.33 0 0.66 0 1 0 C1 12.87 1 25.74 1 39 C-1.31 39 -3.62 39 -6 39 C-4.68 38.34 -3.36 37.68 -2 37 C-1.97494385 35.91468994 -1.9498877 34.82937988 -1.92407227 33.71118164 C-1.83016245 29.698684 -1.72990233 25.68636618 -1.62768555 21.67407227 C-1.58427427 19.93485712 -1.54260388 18.19559765 -1.50268555 16.45629883 C-1.44513232 13.96161512 -1.3813958 11.4671559 -1.31640625 8.97265625 C-1.29133751 7.7992141 -1.29133751 7.7992141 -1.26576233 6.60206604 C-1.11387171 1.11387171 -1.11387171 1.11387171 0 0 Z " fill="#E0A577" transform="translate(106,118)"/>
<path d="M0 0 C1.8125 0.1875 1.8125 0.1875 4 1 C4.350625 1.825 4.70125 2.65 5.0625 3.5 C6.69324647 6.12909054 6.69324647 6.12909054 8.92651367 6.50317383 C11.35599511 6.71813801 13.74864342 6.7955242 16.1875 6.8125 C17.03248047 6.83763672 17.87746094 6.86277344 18.74804688 6.88867188 C20.8315305 6.94752734 22.91581627 6.97662995 25 7 C24.67 5.02 24.34 3.04 24 1 C26.5 3.3125 26.5 3.3125 29 6 C29 6.99 29 7.98 29 9 C25.4803053 9.23413602 21.96262416 9.37497976 18.4375 9.5 C16.9515332 9.60054687 16.9515332 9.60054687 15.43554688 9.703125 C8.14639326 9.89685666 8.14639326 9.89685666 4.72314453 7.21875 C0 1.88751102 0 1.88751102 0 0 Z " fill="#D5A39A" transform="translate(312,148)"/>
<path d="M0 0 C3.46941546 0.45822468 6.67395049 0.89131683 10 2 C11.77313851 2.08209792 13.54920775 2.10746294 15.32421875 2.09765625 C16.86625977 2.09282227 16.86625977 2.09282227 18.43945312 2.08789062 C19.51130859 2.07951172 20.58316406 2.07113281 21.6875 2.0625 C22.77095703 2.05798828 23.85441406 2.05347656 24.97070312 2.04882812 C27.64719085 2.03703743 30.32356777 2.02058063 33 2 C33 1.34 33 0.68 33 0 C35.97 0.33 38.94 0.66 42 1 C37.31700899 5.68299101 28.93281453 5.17673229 22.6875 5.3125 C5.07987899 5.07987899 5.07987899 5.07987899 0 0 Z " fill="#E3A575" transform="translate(33,444)"/>
<path d="M0 0 C0.66 0 1.32 0 2 0 C3.5883272 4.1693589 4.30442659 7.53507661 4 12 C3.67 12.66 3.34 13.32 3 14 C-4.92 13.67 -12.84 13.34 -21 13 C-21 12.34 -21 11.68 -21 11 C-13.08 11 -5.16 11 3 11 C2.01 8.36 1.02 5.72 0 3 C0 2.01 0 1.02 0 0 Z " fill="#DFA476" transform="translate(211,106)"/>
<path d="M0 0 C0.99 0.33 1.98 0.66 3 1 C3 2.65 3 4.3 3 6 C3.99 6.33 4.98 6.66 6 7 C6.33 8.65 6.66 10.3 7 12 C8.65 12.33 10.3 12.66 12 13 C12 13.66 12 14.32 12 15 C15.3 15.66 18.6 16.32 22 17 C21.67 17.66 21.34 18.32 21 19 C13.70830439 18.3923587 7.96030234 15.99580484 2.4375 11.125 C0 8 0 8 0.1875 4.75 C0.455625 3.8425 0.72375 2.935 1 2 C0.67 1.34 0.34 0.68 0 0 Z " fill="#5D71E0" transform="translate(86,356)"/>
<path d="M0 0 C5.51756476 -0.0493521 11.03500171 -0.08569662 16.55273438 -0.10986328 C18.43068682 -0.11993534 20.30862353 -0.13359362 22.18652344 -0.15087891 C24.8822009 -0.17507453 27.57767146 -0.18647083 30.2734375 -0.1953125 C31.11619232 -0.20563507 31.95894714 -0.21595764 32.82723999 -0.22659302 C34.88621247 -0.22699144 36.94467935 -0.12257588 39 0 C41 2 41 2 41.1953125 4.1640625 C41.17210937 4.97617187 41.14890625 5.78828125 41.125 6.625 C41.10695313 7.44226563 41.08890625 8.25953125 41.0703125 9.1015625 C41.04710937 9.72804688 41.02390625 10.35453125 41 11 C39 8 39 8 38 1 C25.46 1 12.92 1 0 1 C0 0.67 0 0.34 0 0 Z " fill="#D9A77D" transform="translate(293,424)"/>
<path d="M0 0 C0.33 0 0.66 0 1 0 C1.09796875 0.86882812 1.1959375 1.73765625 1.296875 2.6328125 C2.42136094 11.53942123 2.42136094 11.53942123 7 19 C4.00675737 17.9024777 3.15389099 17.32317108 1.75 14.375 C1.5025 13.59125 1.255 12.8075 1 12 C0.01 12.33 -0.98 12.66 -2 13 C-2.99 12.34 -3.98 11.68 -5 11 C-4.34 9.35 -3.68 7.7 -3 6 C-3.66 5.67 -4.32 5.34 -5 5 C-3.625 3.5 -3.625 3.5 -2 2 C-1.34 2 -0.68 2 0 2 C0 1.34 0 0.68 0 0 Z " fill="#5670EB" transform="translate(334,218)"/>
<path d="M0 0 C8.58 0 17.16 0 26 0 C29 7 29 7 28 10 C27.34 9.67 26.68 9.34 26 9 C25.87625 8.195625 25.7525 7.39125 25.625 6.5625 C25.28506781 3.90110367 25.28506781 3.90110367 23.24511719 2.85205078 C20.8018872 1.92481365 19.05694158 1.76950079 16.453125 1.8046875 C15.60878906 1.81113281 14.76445312 1.81757813 13.89453125 1.82421875 C12.58548828 1.84935547 12.58548828 1.84935547 11.25 1.875 C9.91775391 1.88853516 9.91775391 1.88853516 8.55859375 1.90234375 C6.37211942 1.92585423 4.18619906 1.95871501 2 2 C1.67 2.66 1.34 3.32 1 4 C0.34 4 -0.32 4 -1 4 C-0.67 2.68 -0.34 1.36 0 0 Z " fill="#E3A575" transform="translate(299,348)"/>
<path d="M0 0 C0.66 0 1.32 0 2 0 C2 7.92 2 15.84 2 24 C1.01 23.67 0.02 23.34 -1 23 C-1.02894547 19.54168414 -1.04678 16.08339928 -1.0625 12.625 C-1.07087891 11.64015625 -1.07925781 10.6553125 -1.08789062 9.640625 C-1.09111328 8.69960937 -1.09433594 7.75859375 -1.09765625 6.7890625 C-1.10289307 5.91975098 -1.10812988 5.05043945 -1.11352539 4.15478516 C-1 2 -1 2 0 0 Z " fill="#E1A67A" transform="translate(105,76)"/>
<path d="M0 0 C0.33 0 0.66 0 1 0 C1 2.97 1 5.94 1 9 C-5.27 9 -11.54 9 -18 9 C-18 7.35 -18 5.7 -18 4 C-17.01 4.495 -17.01 4.495 -16 5 C-16 5.66 -16 6.32 -16 7 C-10.72 7 -5.44 7 0 7 C0 4.69 0 2.38 0 0 Z " fill="#D7A49C" transform="translate(281,148)"/>
<path d="M0 0 C1.16152902 3.48458707 1.13270324 6.26690508 1.125 9.9375 C1.12886719 11.77634766 1.12886719 11.77634766 1.1328125 13.65234375 C1.02667535 16.32762431 0.79917654 18.46927428 0 21 C0.66 21 1.32 21 2 21 C2.33 23.31 2.66 25.62 3 28 C-0.39228705 25.37868728 -1.36212757 22.08525042 -2 18 C-2.41242098 11.72110103 -2.60318936 5.85717607 0 0 Z " fill="#E1A676" transform="translate(21,363)"/>
<path d="M0 0 C2 2 2 2 2 7 C-4.6 7 -11.2 7 -18 7 C-18 6.34 -18 5.68 -18 5 C-12.06 5 -6.12 5 0 5 C0 3.35 0 1.7 0 0 Z " fill="#D2A39D" transform="translate(246,150)"/>
<path d="M0 0 C4.59306496 1.4859916 7.43569245 3.85014682 11 7 C9.25 7.625 9.25 7.625 7 8 C5.66666667 7.33333333 4.33333333 6.66666667 3 6 C-0.16695956 5.83275263 -0.16695956 5.83275263 -3 6 C-2.67 5.34 -2.34 4.68 -2 4 C-1.34 4.33 -0.68 4.66 0 5 C0 3.35 0 1.7 0 0 Z " fill="#ECA26D" transform="translate(76,392)"/>
<path d="M0 0 C2.00720923 0.28674418 4.0085944 0.61866701 6 1 C6 1.66 6 2.32 6 3 C6.66 3.33 7.32 3.66 8 4 C7.01 4.66 6.02 5.32 5 6 C5.66 7.98 6.32 9.96 7 12 C2.48709197 8.66437233 0.31793186 6.66710699 -1 1 C-0.67 0.67 -0.34 0.34 0 0 Z " fill="#8381CD" transform="translate(329,137)"/>
<path d="M0 0 C0.33 0 0.66 0 1 0 C1 7.59 1 15.18 1 23 C-3.86394272 22.02721146 -6.11241167 20.89308899 -10 18 C-10 17.67 -10 17.34 -10 17 C-7.8125 16.75 -7.8125 16.75 -5 17 C-2.525 18.98 -2.525 18.98 0 21 C0 14.07 0 7.14 0 0 Z " fill="#6070DD" transform="translate(371,348)"/>
<path d="M0 0 C2.58422459 0.11418667 5.16679513 0.24092362 7.75 0.375 C8.47960937 0.4059375 9.20921875 0.436875 9.9609375 0.46875 C13.73942656 0.6748494 16.77946668 0.91512843 20 3 C20 3.99 20 4.98 20 6 C19.31035156 5.80664062 18.62070312 5.61328125 17.91015625 5.4140625 C11.96828666 3.76761853 6.03029017 2.28514381 0 1 C0 0.67 0 0.34 0 0 Z " fill="#5670E8" transform="translate(283,307)"/>
<path d="M0 0 C-5 2 -10 4 -15 6 C-15 8.31 -15 10.62 -15 13 C-15.99 13.33 -16.98 13.66 -18 14 C-18 11.03 -18 8.06 -18 5 C-2.5664488 -1.2832244 -2.5664488 -1.2832244 0 0 Z " fill="#6B77D8" transform="translate(300,143)"/>
<path d="M0 0 C0.66 0 1.32 0 2 0 C2.33 0.99 2.66 1.98 3 3 C5.49759982 4.69882448 5.49759982 4.69882448 8 6 C7.814375 7.175625 7.62875 8.35125 7.4375 9.5625 C6.91769004 13.61268594 7.2497646 16.99874453 8 21 C6.28299455 18.42449182 5.43002925 16.64422008 4.4921875 13.76953125 C4.22792969 12.96708984 3.96367187 12.16464844 3.69140625 11.33789062 C3.42199219 10.50451172 3.15257812 9.67113281 2.875 8.8125 C2.59785156 7.96751953 2.32070313 7.12253906 2.03515625 6.25195312 C1.35269284 4.16926307 0.67447474 2.08528809 0 0 Z " fill="#E5A370" transform="translate(407,426)"/>
<path d="M0 0 C0.6015625 1.8359375 0.6015625 1.8359375 1 4 C-1.48699388 8.01745166 -3.66256337 9.40199703 -8 11 C-8.99 12.485 -8.99 12.485 -10 14 C-10.66 14 -11.32 14 -12 14 C-10.41332422 10.09714233 -7.86649519 7.66479018 -4.875 4.75 C-3.96492188 3.85796875 -3.05484375 2.9659375 -2.1171875 2.046875 C-1.41851562 1.37140625 -0.71984375 0.6959375 0 0 Z " fill="#5870E6" transform="translate(131,153)"/>
<path d="M0 0 C8.20037776 1.10815916 16.07193875 2.61681525 24 5 C24 5.33 24 5.66 24 6 C21.36 6 18.72 6 16 6 C16 5.34 16 4.68 16 4 C14.9275 4.020625 13.855 4.04125 12.75 4.0625 C9.78121283 4.01302021 7.77067841 3.83120352 5 3 C3.33480481 2.65939189 1.66842534 2.32441604 0 2 C0 1.34 0 0.68 0 0 Z " fill="#E3A172" transform="translate(49,385)"/>
<path d="M0 0 C0.33 0 0.66 0 1 0 C1 1.65 1 3.3 1 5 C1.99 5.33 2.98 5.66 4 6 C3.01 7.485 3.01 7.485 2 9 C2.30840599 11.15274948 2.30840599 11.15274948 3 13 C2.01 12.67 1.02 12.34 0 12 C-0.99 13.32 -1.98 14.64 -3 16 C-2.40984815 10.49191603 -1.43336231 5.35121931 0 0 Z " fill="#5570EB" transform="translate(84,248)"/>
<path d="M0 0 C0.33 0 0.66 0 1 0 C1.19408255 4.85206364 0.71278419 8.46615951 -1 13 C-1.12375 13.70125 -1.2475 14.4025 -1.375 15.125 C-2.25248214 17.75744643 -4.02450044 19.1032056 -6 21 C-4.29977612 13.87352969 -2.42080258 6.9165788 0 0 Z " fill="#5970E4" transform="translate(94,214)"/>
<path d="M0 0 C0.33 0.66 0.66 1.32 1 2 C0.01 4.97 -0.98 7.94 -2 11 C-8.6 11 -15.2 11 -22 11 C-22 9.35 -22 7.7 -22 6 C-21.67 7.32 -21.34 8.64 -21 10 C-15.06 10 -9.12 10 -3 10 C-3 8.35 -3 6.7 -3 5 C-1.5 2.1875 -1.5 2.1875 0 0 Z " fill="#C59EAF" transform="translate(178,146)"/>
<path d="M0 0 C0.99 0.33 1.98 0.66 3 1 C5.43780377 1.15269181 7.85283901 1.25682697 10.29296875 1.31640625 C10.99899734 1.33718735 11.70502594 1.35796844 12.43244934 1.37937927 C14.68403551 1.44467491 16.93573662 1.50366647 19.1875 1.5625 C20.7155066 1.60570425 22.24350164 1.64931916 23.77148438 1.69335938 C27.51420562 1.80033574 31.2570423 1.90165922 35 2 C35 2.33 35 2.66 35 3 C23.45 3 11.9 3 0 3 C0 2.01 0 1.02 0 0 Z " fill="#E7A572" transform="translate(374,111)"/>
<path d="M0 0 C3.015625 3.734375 3.015625 3.734375 2.875 6.125 C2 8 2 8 -1 10 C-2.07136051 12.30144109 -3.07989717 14.6340213 -4 17 C-5.3274855 13.01754349 -3.99907829 10.55210457 -2.5625 6.8125 C-2.19801758 5.83120117 -2.19801758 5.83120117 -1.82617188 4.83007812 C-1.2256707 3.21696714 -0.61390797 1.6080565 0 0 Z " fill="#E5A572" transform="translate(289,376)"/>
<path d="M0 0 C3.00469351 2.59496258 3.36858796 3.9214699 5 8 C11.27 8.33 17.54 8.66 24 9 C24 9.33 24 9.66 24 10 C17.4 10 10.8 10 4 10 C3.67 9.01 3.34 8.02 3 7 C2.34 7 1.68 7 1 7 C0.67 4.69 0.34 2.38 0 0 Z " fill="#6E73D9" transform="translate(224,149)"/>
<path d="M0 0 C3.70503641 0.60334309 5.85968148 2.22474237 8.75 4.5625 C9.94882813 5.52349609 9.94882813 5.52349609 11.171875 6.50390625 C12.07679687 7.24447266 12.07679687 7.24447266 13 8 C12.67 8.99 12.34 9.98 12 11 C11.67 10.01 11.34 9.02 11 8 C8.98491642 7.26676204 8.98491642 7.26676204 7 7 C6.67 7.66 6.34 8.32 6 9 C5.731875 8.195625 5.46375 7.39125 5.1875 6.5625 C4.795625 5.716875 4.40375 4.87125 4 4 C3.01 3.67 2.02 3.34 1 3 C0.67 2.01 0.34 1.02 0 0 Z " fill="#D89F8C" transform="translate(75,350)"/>
<path d="M0 0 C3.07393213 3.07393213 3.84749009 6.92636988 5.1875 11 C5.47302734 11.83273437 5.75855469 12.66546875 6.05273438 13.5234375 C6.31763672 14.32007813 6.58253906 15.11671875 6.85546875 15.9375 C7.09934326 16.66839844 7.34321777 17.39929688 7.59448242 18.15234375 C8 20 8 20 7 22 C3.11205562 14.7583326 0 8.37401188 0 0 Z " fill="#DFA578" transform="translate(332,370)"/>
<path d="M0 0 C0.36923077 5.41538462 0.36923077 5.41538462 -1.5 8.375 C-1.995 8.91125 -2.49 9.4475 -3 10 C-2.47731534 7.23723823 -1.89130413 4.6739124 -1 2 C-1.60328125 2.22816406 -2.2065625 2.45632812 -2.828125 2.69140625 C-3.62734375 2.97886719 -4.4265625 3.26632813 -5.25 3.5625 C-6.03890625 3.85253906 -6.8278125 4.14257812 -7.640625 4.44140625 C-10.19103452 5.04522837 -11.55322229 4.8473932 -14 4 C-12.42032193 3.32471777 -10.83608097 2.66010306 -9.25 2 C-8.36828125 1.62875 -7.4865625 1.2575 -6.578125 0.875 C-4 0 -4 0 0 0 Z " fill="#6673D4" transform="translate(160,140)"/>
<path d="M0 0 C1.67542976 0.28604898 3.34385343 0.61781233 5 1 C5.33 1.99 5.66 2.98 6 4 C3.03 3.505 3.03 3.505 0 3 C-0.226875 3.61875 -0.45375 4.2375 -0.6875 4.875 C-2.37929835 7.61410209 -3.99244161 8.05024472 -7 9 C-6.02180976 7.68677212 -5.0424189 6.37443848 -4.0625 5.0625 C-3.51722656 4.33160156 -2.97195312 3.60070312 -2.41015625 2.84765625 C-1 1 -1 1 0 0 Z " fill="#E4A879" transform="translate(26,417)"/>
<path d="M0 0 C1.65 0 3.3 0 5 0 C5.33 1.32 5.66 2.64 6 4 C7.32 4.33 8.64 4.66 10 5 C10 5.66 10 6.32 10 7 C10.99 7 11.98 7 13 7 C13 7.66 13 8.32 13 9 C7.50151887 7.65890704 3.907435 4.96523729 0 1 C0 0.67 0 0.34 0 0 Z " fill="#E1A878" transform="translate(24,392)"/>
<path d="M0 0 C0.33 0 0.66 0 1 0 C0.979375 1.11375 0.95875 2.2275 0.9375 3.375 C0.73619282 6.83215921 0.73619282 6.83215921 2 9 C0.68 10.32 -0.64 11.64 -2 13 C-2.66 12.67 -3.32 12.34 -4 12 C-2.68 8.04 -1.36 4.08 0 0 Z " fill="#E5A36E" transform="translate(283,393)"/>
<path d="M0 0 C2.04119788 1.61594832 4.04072937 3.2856382 6 5 C6 5.66 6 6.32 6 7 C4.824375 6.505 4.824375 6.505 3.625 6 C-0.99361869 4.72589829 -5.24249356 4.83076064 -10 5 C-10 4.34 -10 3.68 -10 3 C-9.36191406 2.95101562 -8.72382813 2.90203125 -8.06640625 2.8515625 C-7.24011719 2.77679688 -6.41382813 2.70203125 -5.5625 2.625 C-4.73878906 2.55539063 -3.91507812 2.48578125 -3.06640625 2.4140625 C-2.38449219 2.27742187 -1.70257813 2.14078125 -1 2 C-0.67 1.34 -0.34 0.68 0 0 Z " fill="#5B72E7" transform="translate(356,202)"/>
<path d="M0 0 C2.31 0.33 4.62 0.66 7 1 C7 1.66 7 2.32 7 3 C2.27685687 3.77112541 -2.21521178 4.09764874 -7 4 C-7 3.67 -7 3.34 -7 3 C-5.5459375 2.814375 -5.5459375 2.814375 -4.0625 2.625 C-2.5465625 2.315625 -2.5465625 2.315625 -1 2 C-0.67 1.34 -0.34 0.68 0 0 Z " fill="#F3C441" transform="translate(352,444)"/>
<path d="M0 0 C0.33 0.99 0.66 1.98 1 3 C-0.01320313 3.09087891 -0.01320313 3.09087891 -1.046875 3.18359375 C-1.93890625 3.26738281 -2.8309375 3.35117188 -3.75 3.4375 C-4.63171875 3.51871094 -5.5134375 3.59992188 -6.421875 3.68359375 C-8.69350452 3.96238465 -10.79851823 4.38790577 -13 5 C-12.67 4.01 -12.34 3.02 -12 2 C-10.0390625 1.26953125 -10.0390625 1.26953125 -7.625 0.8125 C-6.83351563 0.65394531 -6.04203125 0.49539062 -5.2265625 0.33203125 C-3 0 -3 0 0 0 Z " fill="#5A73DF" transform="translate(323,236)"/>
<path d="M0 0 C4.19567905 6.29351857 5.40735632 12.53180074 5 20 C4.71125 19.38125 4.4225 18.7625 4.125 18.125 C3.06279958 15.86674235 3.06279958 15.86674235 1 14 C1.66 14 2.32 14 3 14 C2.7834375 13.40832031 2.566875 12.81664062 2.34375 12.20703125 C-0.42179262 4.35852373 -0.42179262 4.35852373 0 0 Z " fill="#E5A271" transform="translate(241,135)"/>
<path d="M0 0 C-0.6875 2.4375 -0.6875 2.4375 -2 5 C-4.5625 5.6875 -4.5625 5.6875 -7 6 C-7.33 6.66 -7.66 7.32 -8 8 C-9.32 7.34 -10.64 6.68 -12 6 C-10.37829621 4.99466333 -8.75252763 3.99588093 -7.125 3 C-5.76761719 2.1646875 -5.76761719 2.1646875 -4.3828125 1.3125 C-2 0 -2 0 0 0 Z " fill="#5670EA" transform="translate(146,145)"/>
<path d="M0 0 C0.66 0.33 1.32 0.66 2 1 C1.875 2.75 1.875 2.75 1 5 C-0.98689731 6.35278115 -2.98745218 7.68568305 -5 9 C-6.38868516 11.10039331 -6.38868516 11.10039331 -7 13 C-7.66 12.34 -8.32 11.68 -9 11 C-6.03 7.37 -3.06 3.74 0 0 Z " fill="#E6A173" transform="translate(297,82)"/>
<path d="M0 0 C0.99 0 1.98 0 3 0 C3.33 5.28 3.66 10.56 4 16 C2.35 16.33 0.7 16.66 -1 17 C-1 16.34 -1 15.68 -1 15 C-0.01 15 0.98 15 2 15 C1.34 10.05 0.68 5.1 0 0 Z " fill="#E5A877" transform="translate(417,58)"/>
<path d="M0 0 C1.48717691 3.86665996 0.34016247 6.20287302 -1 10 C-1.37531446 12.32694964 -1.71917202 14.65976685 -2 17 C-2.99 17 -3.98 17 -5 17 C-1.92482916 5.47835991 -1.92482916 5.47835991 0 0 Z " fill="#E1A372" transform="translate(295,358)"/>
<path d="M0 0 C2.77888613 0.69140522 2.77888613 0.69140522 5 1 C4.67 1.66 4.34 2.32 4 3 C-4.415 1.02 -4.415 1.02 -13 -1 C-13 -1.33 -13 -1.66 -13 -2 C-7.65658378 -3.43359947 -4.91501541 -2.32346183 0 0 Z " fill="#E4A375" transform="translate(53,404)"/>
<path d="M0 0 C0.33 0 0.66 0 1 0 C1.66 2.31 2.32 4.62 3 7 C2.01 7.33 1.02 7.66 0 8 C-1.22520264 11.00847418 -1.22520264 11.00847418 -2 14 C-2.66 14 -3.32 14 -4 14 C-3.21824485 9.15311808 -1.60155722 4.6233633 0 0 Z " fill="#E8A270" transform="translate(178,88)"/>
<path d="M0 0 C0.66 0 1.32 0 2 0 C1.52229477 1.93786085 1.04278429 3.87527674 0.5625 5.8125 C0.29566406 6.89144531 0.02882812 7.97039062 -0.24609375 9.08203125 C-0.76077412 11.0740843 -1.34937175 13.04811524 -2 15 C-2.66 15 -3.32 15 -4 15 C-3.71617054 13.24871182 -3.42260471 11.49899997 -3.125 9.75 C-2.96257812 8.77546875 -2.80015625 7.8009375 -2.6328125 6.796875 C-2.05144152 4.22735883 -1.29159735 2.27928944 0 0 Z " fill="#E5A67B" transform="translate(197,85)"/>
<path d="M0 0 C0.33 0.99 0.66 1.98 1 3 C1.99 3.33 2.98 3.66 4 4 C2.35 5.98 0.7 7.96 -1 10 C-2.1875 8.375 -2.1875 8.375 -3 6 C-1.625 2.75 -1.625 2.75 0 0 Z " fill="#5670EA" transform="translate(172,326)"/>
<path d="M0 0 C0.33 0 0.66 0 1 0 C1.33 4.62 1.66 9.24 2 14 C1.01 14.66 0.02 15.32 -1 16 C-1.11138159 10.54230189 -0.91657981 5.38490641 0 0 Z " fill="#5672DF" transform="translate(76,286)"/>
<path d="M0 0 C5.94 0 11.88 0 18 0 C17.67 1.32 17.34 2.64 17 4 C16.01 4.495 16.01 4.495 15 5 C15 4.01 15 3.02 15 2 C10.05 1.67 5.1 1.34 0 1 C0 0.67 0 0.34 0 0 Z " fill="#E2A46C" transform="translate(320,58)"/>
<path d="M0 0 C0.66 0 1.32 0 2 0 C2.66 2.97 3.32 5.94 4 9 C1.69 7.02 -0.62 5.04 -3 3 C-2.01 2.67 -1.02 2.34 0 2 C0 1.34 0 0.68 0 0 Z " fill="#E7A470" transform="translate(20,430)"/>
<path d="M0 0 C1.98 0 3.96 0 6 0 C6 1.32 6 2.64 6 4 C4.35 4.33 2.7 4.66 1 5 C0.67 3.35 0.34 1.7 0 0 Z " fill="#5172FD" transform="translate(121,367)"/>
<path d="M0 0 C1.60938465 2.41407698 2.65490738 4.34044437 3.6875 7 C3.95949219 7.680625 4.23148437 8.36125 4.51171875 9.0625 C5 11 5 11 4 14 C3.67 12.35 3.34 10.7 3 9 C2.34 9 1.68 9 1 9 C0.67 6.03 0.34 3.06 0 0 Z " fill="#E2A375" transform="translate(340,393)"/>
<path d="M0 0 C0.33 0 0.66 0 1 0 C1 3.3 1 6.6 1 10 C-1.475 9.01 -1.475 9.01 -4 8 C-3.34 7.67 -2.68 7.34 -2 7 C-1.39938767 5.09821215 -1.39938767 5.09821215 -1 3 C-0.67 2.01 -0.34 1.02 0 0 Z M-4 9 C-2 10 -2 10 -2 10 Z " fill="#566FED" transform="translate(301,251)"/>
<path d="M0 0 C2.88437779 1.29299694 4.87219421 2.65941363 7 5 C5.35 5 3.7 5 2 5 C1.67 5.66 1.34 6.32 1 7 C0.67 4.69 0.34 2.38 0 0 Z " fill="#EBA873" transform="translate(34,423)"/>
<path d="M0 0 C1.31223496 3.93670488 0.24296256 6.12488144 -1 10 C-2.32 10.33 -3.64 10.66 -5 11 C-4.14254495 8.42763485 -3.1606471 6.21933783 -1.9375 3.8125 C-1.57527344 3.09707031 -1.21304687 2.38164062 -0.83984375 1.64453125 C-0.42412109 0.83048828 -0.42412109 0.83048828 0 0 Z " fill="#EAA875" transform="translate(303,390)"/>
<path d="M0 0 C-5.41538462 3.07692308 -5.41538462 3.07692308 -8.375 2.6875 C-9.179375 2.3471875 -9.179375 2.3471875 -10 2 C-6.80505194 -1.19494806 -4.22040044 -1.35655728 0 0 Z " fill="#6177E0" transform="translate(127,372)"/>
<path d="M0 0 C0.33 0.99 0.66 1.98 1 3 C-0.5 5.6875 -0.5 5.6875 -3 8 C-6.75 8.3125 -6.75 8.3125 -10 8 C-9.443125 7.7525 -8.88625 7.505 -8.3125 7.25 C-4.95956419 5.43760226 -1.73442754 3.46885508 0 0 Z " fill="#586DD8" transform="translate(175,273)"/>
<path d="M0 0 C1.98 0.495 1.98 0.495 4 1 C3.34 2.32 2.68 3.64 2 5 C2.99 6.485 2.99 6.485 4 8 C2.35 8 0.7 8 -1 8 C-0.67 5.36 -0.34 2.72 0 0 Z " fill="#E0A476" transform="translate(301,101)"/>
<path d="M0 0 C0.66 0.66 1.32 1.32 2 2 C1.01 4.97 0.02 7.94 -1 11 C-1.33 11 -1.66 11 -2 11 C-2 8.69 -2 6.38 -2 4 C-1.34 4 -0.68 4 0 4 C0 2.68 0 1.36 0 0 Z " fill="#F4A65B" transform="translate(90,408)"/>
<path d="M0 0 C1.33333333 0.66666667 2.66666667 1.33333333 4 2 C4.70125 2.28875 5.4025 2.5775 6.125 2.875 C8.42031559 4.25218936 9.02079402 5.55198504 10 8 C6.05205855 6.32971708 3.18203882 3.8204435 0 1 C0 0.67 0 0.34 0 0 Z " fill="#5A6DDF" transform="translate(351,357)"/>
<path d="M0 0 C0.66 0 1.32 0 2 0 C1.625 1.9375 1.625 1.9375 1 4 C0.01 4.495 0.01 4.495 -1 5 C-1.33 5.99 -1.66 6.98 -2 8 C-2.99 8.33 -3.98 8.66 -5 9 C-3.7580393 5.56072421 -2.44259716 2.74792181 0 0 Z " fill="#576FE2" transform="translate(117,168)"/>
<path d="M0 0 C3.63 0.66 7.26 1.32 11 2 C8.07735566 3.46132217 6.07536854 4.34099246 3 5 C3.66 4.67 4.32 4.34 5 4 C5 3.34 5 2.68 5 2 C3.35 1.67 1.7 1.34 0 1 C0 0.67 0 0.34 0 0 Z " fill="#5870E3" transform="translate(208,145)"/>
<path d="M0 0 C1.25541557 3.76624671 0.37061958 5.37188934 -1 9 C-1.66 9 -2.32 9 -3 9 C-3 6.69 -3 4.38 -3 2 C-2.01 2 -1.02 2 0 2 C0 1.34 0 0.68 0 0 Z " fill="#E2A573" transform="translate(191,106)"/>
<path d="M0 0 C0.33 0.99 0.66 1.98 1 3 C0.00390625 4.82421875 0.00390625 4.82421875 -1.4375 6.6875 C-1.91058594 7.31011719 -2.38367188 7.93273437 -2.87109375 8.57421875 C-3.24363281 9.04472656 -3.61617188 9.51523437 -4 10 C-4.33 9.01 -4.66 8.02 -5 7 C-4.34 6.34 -3.68 5.68 -3 5 C-2.835 4.319375 -2.67 3.63875 -2.5 2.9375 C-2.335 2.298125 -2.17 1.65875 -2 1 C-1.34 0.67 -0.68 0.34 0 0 Z " fill="#DCA788" transform="translate(85,361)"/>
<path d="M0 0 C2.31 0.66 4.62 1.32 7 2 C6.67 2.66 6.34 3.32 6 4 C6.39938767 6.09821215 6.39938767 6.09821215 7 8 C4.35247996 5.42215154 2.05567935 3.08351902 0 0 Z " fill="#5870DF" transform="translate(325,330)"/>
<path d="M0 0 C0.33 0.66 0.66 1.32 1 2 C1.66 2 2.32 2 3 2 C3.33 4.64 3.66 7.28 4 10 C-0.60921053 4.64736842 -0.60921053 4.64736842 -1 1 C-0.67 0.67 -0.34 0.34 0 0 Z " fill="#DCA68D" transform="translate(224,144)"/>
<path d="M0 0 C1.9375 0.75 1.9375 0.75 4 2 C4.75 4.125 4.75 4.125 5 6 C4.01 5.34 3.02 4.68 2 4 C2 3.34 2 2.68 2 2 C1.34 2 0.68 2 0 2 C0 3.65 0 5.3 0 7 C-0.33 7 -0.66 7 -1 7 C-1.04254356 5.00045254 -1.04080783 2.99958364 -1 1 C-0.67 0.67 -0.34 0.34 0 0 Z " fill="#DEA376" transform="translate(283,113)"/>
<path d="M0 0 C1.0625 1.875 1.0625 1.875 2 4 C1.67 4.66 1.34 5.32 1 6 C-1.5625 6.625 -1.5625 6.625 -4 7 C-1.125 1.125 -1.125 1.125 0 0 Z " fill="#E6A46F" transform="translate(287,94)"/>
<path d="M0 0 C3.26460973 1.80412643 4.88929795 2.83394693 7 6 C5.35 5.67 3.7 5.34 2 5 C2 4.01 2 3.02 2 2 C1.34 2 0.68 2 0 2 C0 1.34 0 0.68 0 0 Z " fill="#E3A278" transform="translate(80,394)"/>
<path d="M0 0 C0.66 0.33 1.32 0.66 2 1 C2 3.97 2 6.94 2 10 C0.23934164 7.35901246 -0.52722899 6.0257345 -1 3 C-0.67 2.01 -0.34 1.02 0 0 Z " fill="#E3B189" transform="translate(332,425)"/>
<path d="M0 0 C0.33 0 0.66 0 1 0 C1.33 2.31 1.66 4.62 2 7 C1.01 7.33 0.02 7.66 -1 8 C-1.33 8.66 -1.66 9.32 -2 10 C-1.46274105 6.62294375 -0.88935377 3.303314 0 0 Z " fill="#606FE2" transform="translate(178,148)"/>
<path d="M0 0 C1.99097846 2.98646769 2.94124926 5.59687262 4 9 C3.01 9.495 3.01 9.495 2 10 C-0.4294516 6.3558226 -0.16179575 4.28758728 0 0 Z " fill="#E6A979" transform="translate(235,118)"/>
</svg>
